<svg xmlns="http://www.w3.org/2000/svg" xmlns:xlink="http://www.w3.org/1999/xlink" viewBox="0 0 94 65">
  <defs>
    <linearGradient id="bc1f8e7b-a86b-41f2-a19f-fc2ff3e6952a" data-name="Безымянный градиент 46" x1="59.8756" y1="36.9908" x2="74.8301" y2="57.215" gradientUnits="userSpaceOnUse">
      <stop offset="0" stop-color="#e2e5ea" stop-opacity="0.8"/>
      <stop offset="1" stop-color="#e2e5ea" stop-opacity="0"/>
    </linearGradient>
    <linearGradient id="fea17cd8-d9e5-44f4-9785-bf265b414076" x1="39.6045" y1="44.2864" x2="55.3496" y2="65.5797" xlink:href="#bc1f8e7b-a86b-41f2-a19f-fc2ff3e6952a"/>
    <linearGradient id="abd96413-9df9-464e-8135-63e65437dd6b" data-name="Безымянный градиент 15" x1="51.814" y1="40.2401" x2="51.814" y2="29.2049" gradientUnits="userSpaceOnUse">
      <stop offset="0" stop-color="#4f54a0"/>
      <stop offset="1" stop-color="#7377b7"/>
    </linearGradient>
    <linearGradient id="b57ea32f-4c38-4e51-b5ad-3360c95e66e2" data-name="Безымянный градиент 27" x1="42.0825" y1="32.0364" x2="32.741" y2="15.0005" gradientUnits="userSpaceOnUse">
      <stop offset="0" stop-color="#e73357"/>
      <stop offset="1" stop-color="#eb5778"/>
    </linearGradient>
    <linearGradient id="ea82bc0a-6821-47ea-b9ff-49121f13f5e1" data-name="Безымянный градиент 42" x1="8.5284" y1="29.9741" x2="39.2643" y2="29.9741" gradientUnits="userSpaceOnUse">
      <stop offset="0" stop-color="#f0f0f9"/>
      <stop offset="1" stop-color="#d2d7ee"/>
    </linearGradient>
    <linearGradient id="abf3b6d9-f328-47e4-82b8-acfd66449d60" data-name="Безымянный градиент 369" x1="32.8083" y1="23.9901" x2="19.463" y2="32.9506" gradientUnits="userSpaceOnUse">
      <stop offset="0" stop-color="#b1b0d9"/>
      <stop offset="1" stop-color="#fff"/>
    </linearGradient>
    <linearGradient id="e2523ee8-378c-4393-a78e-b448f383de49" x1="34.8569" y1="23.1698" x2="18.8776" y2="33.0618" xlink:href="#abf3b6d9-f328-47e4-82b8-acfd66449d60"/>
    <linearGradient id="b744f934-45ce-462e-8e05-3f3227ca6e58" x1="31.3558" y1="25.7256" x2="24.0892" y2="30.2672" xlink:href="#abf3b6d9-f328-47e4-82b8-acfd66449d60"/>
    <linearGradient id="a9575dc3-f64f-4181-a9b5-93fd4c3e427e" data-name="Безымянный градиент 423" x1="36.4174" y1="40.5922" x2="28.8867" y2="32.0607" gradientUnits="userSpaceOnUse">
      <stop offset="0.0407" stop-color="#fff"/>
      <stop offset="0.9776" stop-color="#b1b0d9"/>
    </linearGradient>
    <linearGradient id="a2a965ed-2675-45f4-a925-2ab8ff828d9c" data-name="Безымянный градиент 20" x1="30.5746" y1="30.8307" x2="25.946" y2="23.8645" gradientUnits="userSpaceOnUse">
      <stop offset="0" stop-color="#009db0"/>
      <stop offset="1" stop-color="#00a9c0"/>
    </linearGradient>
    <linearGradient id="f84dfd28-dd52-4239-b356-8b7165085fbb" x1="21.2035" y1="29.9741" x2="26.5886" y2="29.9741" xlink:href="#a2a965ed-2675-45f4-a925-2ab8ff828d9c"/>
  </defs>
  <g style="isolation: isolate">
    <g id="a080072c-b8fa-4716-8db4-15543ce0b7c4" data-name="Layer 1">
      <polygon points="50.249 40.791 77.333 56.273 85.472 54.788 56.285 38.745 50.249 40.791" style="fill: url(#bc1f8e7b-a86b-41f2-a19f-fc2ff3e6952a)"/>
      <polygon points="27.965 49.4 55.049 64.882 68.058 61.912 38.871 45.868 27.965 49.4" style="fill: url(#fea17cd8-d9e5-44f4-9785-bf265b414076)"/>
      <path d="M53.8427,42.7118,57.61,40.7375a2.0092,2.0092,0,0,0,1.0763-1.776l.041-17.1511-4.8841,2.6961Z" style="fill: #50368c"/>
      <path d="M49.7853,39.4111a2.007,2.007,0,0,0,1.0967,1.7927l2.9607,1.508V21.0459l-4.0171,2.2172Z" style="fill: url(#abd96413-9df9-464e-8135-63e65437dd6b)"/>
      <path d="M61.8381.8454C60.0605-.181,58.461-.2386,57.3272.4877L57.3239.4811,38.4654,11.3719l9.7309,14.6172L66.2948,15.6048c1.0894-.6648,1.7632-2.0389,1.7632-3.986A13.7488,13.7488,0,0,0,61.8381.8454Z" style="fill: #50368c"/>
      <path d="M52.659,4.03c-2.01-1.1609-3.846-1.3641-5.2527-.7634l-.0022-.0033-.0288.0144c-.0122.006-16.7143,6.96-25.3464,5.8606-2.6131-.3332-6.4418.0017-8.7029,1.8574,0,0-2.49,4.92-2.49,8.7566,0,9.8,6.88,21.7169,15.3679,26.6169,3.3306,1.9233,8.5319,2.441,8.5319,2.441a14.2462,14.2462,0,0,0,4.4156-3.1579,15.37,15.37,0,0,0,1.7423-3.3195c3.4407-8.05,10.1694-14.2568,17.39-19.2206,1.4726-.8271,2.3861-2.63,2.3861-5.2074A17.7069,17.7069,0,0,0,52.659,4.03Z" style="fill: url(#b57ea32f-4c38-4e51-b5ad-3360c95e66e2)"/>
      <path d="M48.3863,9.2632a18.514,18.514,0,0,1,5.927,13.1911c0,2.556-.3211,4.1626-1.81,5.1376.0078.0116.0144.0238.0216.0359.1334-.0853.2657-.1732.4-.2574,1.7273-.8924,2.7992-2.8368,2.7992-5.617C55.724,17.59,52.7487,11.8452,48.3863,9.2632Z" style="fill: #ec6464;opacity: 0.6000000000000001;mix-blend-mode: multiply"/>
      <path d="M45.3674,6.8222c-2.3579-1.29-4.5115-1.5158-6.1619-.8487L39.2028,5.97l-.0338.0161s-.2193.2214-.1932.28A7.6965,7.6965,0,0,1,44.5491,7.305c5.19,2.84,9.3966,9.747,9.3966,15.4272,0,2.6347-.913,4.53-2.4017,5.5345l.0223.0371c.1329-.088.2652-.1783.3991-.2657,1.7273-.92,2.7986-2.9237,2.7986-5.7892C54.764,16.5693,50.5569,9.6623,45.3674,6.8222Z" style="fill: #4f54a0"/>
      <path d="M23.8963,12.23c-8.4876-4.9-15.3679-.9279-15.3679,8.8717s6.88,21.7174,15.3679,26.6176,15.368.9278,15.368-8.8724S32.3833,17.13,23.8963,12.23Z" style="fill: url(#ea82bc0a-6821-47ea-b9ff-49121f13f5e1)"/>
      <path d="M30.1417,20.3621a26.3753,26.3753,0,0,0-7.2309-6.4292,12.1384,12.1384,0,0,0-5.8788-1.8386c-4.0941,0-6.5372,3.3672-6.5372,9.0052,0,9.1619,6.4535,20.34,14.3819,24.9157a12.178,12.178,0,0,0,5.884,1.838c4.0945,0,6.5376-3.3671,6.5376-9.0046a26.4137,26.4137,0,0,0-1.9565-9.4819A35.1,35.1,0,0,0,30.1417,20.3621Z" style="fill: url(#abf3b6d9-f328-47e4-82b8-acfd66449d60)"/>
      <path d="M30.114,20.4684a23.8511,23.8511,0,0,0-6.5366-5.8119,10.9749,10.9749,0,0,0-5.3148-1.6619c-3.7014,0-5.91,3.0438-5.91,8.14,0,8.2832,5.8346,18.3884,13.0024,22.5252a11.0018,11.0018,0,0,0,5.3186,1.6619c3.702,0,5.9105-3.0438,5.9105-8.141A23.8722,23.8722,0,0,0,34.8153,28.61,31.7451,31.7451,0,0,0,30.114,20.4684Z" style="fill: #e72a4f"/>
      <path d="M30.7507,21.2219a20.6249,20.6249,0,0,0-5.65-5.0235,9.4881,9.4881,0,0,0-4.594-1.4367c-3.1994,0-5.1077,2.6314-5.1077,7.0365,0,7.1595,5.0424,15.8933,11.2379,19.4686a9.51,9.51,0,0,0,4.5973,1.4367c3.1994,0,5.1083-2.6308,5.1083-7.0365a20.641,20.641,0,0,0-1.5285-7.4086A27.44,27.44,0,0,0,30.7507,21.2219Z" style="fill: url(#e2523ee8-378c-4393-a78e-b448f383de49)"/>
      <path d="M31.1166,21.7872a17.0976,17.0976,0,0,0-4.6847-4.1655,7.87,7.87,0,0,0-3.809-1.1908c-2.6523,0-4.2351,2.1813-4.2351,5.8341,0,5.9364,4.1815,13.1783,9.3179,16.143a7.8873,7.8873,0,0,0,3.8122,1.1913c2.653,0,4.2359-2.1818,4.2359-5.8346a17.1013,17.1013,0,0,0-1.2679-6.1429A22.7341,22.7341,0,0,0,31.1166,21.7872Z" style="fill: #e72a4f"/>
      <path d="M31.699,22.6049a13.4507,13.4507,0,0,0-3.6805-3.2725,6.1855,6.1855,0,0,0-2.9922-.9357c-2.0839,0-3.3279,1.7141-3.3279,4.5835A16.2055,16.2055,0,0,0,29.02,35.6626a6.1979,6.1979,0,0,0,2.995.9362c2.0839,0,3.3273-1.7141,3.3273-4.584a13.4475,13.4475,0,0,0-.9959-4.826A17.8492,17.8492,0,0,0,31.699,22.6049Z" style="fill: url(#b744f934-45ce-462e-8e05-3f3227ca6e58)"/>
      <path d="M32.1685,23.4132a9.1867,9.1867,0,0,0-2.5173-2.239,4.2323,4.2323,0,0,0-2.0473-.64c-1.4255,0-2.2759,1.172-2.2759,3.1357a11.085,11.085,0,0,0,5.008,8.6758,4.233,4.233,0,0,0,2.0484.6405c1.4261,0,2.277-1.1726,2.277-3.1357a9.1965,9.1965,0,0,0-.6815-3.3017A12.1957,12.1957,0,0,0,32.1685,23.4132Z" style="fill: #e72a4f"/>
      <path d="M32.2166,23.2675c-.1162.3549-4.631,9.19-6.8482,9.7188,0,5.5567,2.3484,11.776,6.76,14.7286,3.2641-.6827,5.17-3.8886,5.17-8.8663a26.4137,26.4137,0,0,0-1.9565-9.4819A34.9764,34.9764,0,0,0,32.2166,23.2675Z" style="mix-blend-mode: multiply;fill: url(#a9575dc3-f64f-4181-a9b5-93fd4c3e427e)"/>
      <g>
        <path d="M21.8789,26.752l3.7059,6.6207,9.757-4.006a35.1,35.1,0,0,0-5.2-9.0046Z" style="fill: url(#a2a965ed-2675-45f4-a925-2ab8ff828d9c)"/>
        <path d="M23.8963,26.865c-1.4871-.8581-2.6928-.1623-2.6928,1.5545a5.9528,5.9528,0,0,0,2.6928,4.6638c1.487.858,2.6923.1621,2.6923-1.5546A5.9511,5.9511,0,0,0,23.8963,26.865Z" style="fill: url(#f84dfd28-dd52-4239-b356-8b7165085fbb)"/>
      </g>
    </g>
  </g>
</svg>
