<svg xmlns="http://www.w3.org/2000/svg" viewBox="0 0 121.0402 167.9582">
  <defs>
    <style>
      .e139aeab-f556-4199-a5f9-72bc23091000 {
        fill: #fff;
      }
    </style>
  </defs>
  <g id="a3c02190-fc8a-44de-a55d-453cc07d4571" data-name="Layer 2">
    <g id="a1a6be81-bcd6-4e36-b50a-f003070ced9d" data-name="Layer 2">
      <g>
        <path class="e139aeab-f556-4199-a5f9-72bc23091000" d="M1.1258,42.7356,36.4844,63.15a2.2515,2.2515,0,0,0,3.3773-1.95V35.2487a2.2511,2.2511,0,0,0-1.1257-1.95L3.3772,12.884A2.2517,2.2517,0,0,0,0,14.8342V40.7859A2.2516,2.2516,0,0,0,1.1258,42.7356Z"/>
        <path class="e139aeab-f556-4199-a5f9-72bc23091000" d="M116.7266,102.9387,97.199,114.2136a2.8762,2.8762,0,0,0-1.4377,2.4907v10.314a34.98,34.98,0,0,1-23.0057,32.8481,40.912,40.912,0,0,0,18.186-.6313,40.0547,40.0547,0,0,0,4.82-1.6162,40.4883,40.4883,0,0,0,25.18-34.7344c.0661-.9419.0992-17.4551.0992-17.4551A2.8758,2.8758,0,0,0,116.7266,102.9387Z"/>
        <path class="e139aeab-f556-4199-a5f9-72bc23091000" d="M108.4751,5.133a12.5756,12.5756,0,0,0-6.1845,1.5728c-.0086.0044-53.3761,30.8169-53.3761,30.8169a2.8755,2.8755,0,0,0-1.4379,2.4907v46.229l-.001-.001L3.377,60.7815A2.2515,2.2515,0,0,0,0,62.7317V88.6838a2.2516,2.2516,0,0,0,1.1257,1.95l45.2249,26.11a2.25,2.25,0,0,1,1.125,1.935v11.5767a2.251,2.251,0,0,1-3.3762,1.9355L3.3772,108.68A2.2516,2.2516,0,0,0,0,110.63v25.9517a2.252,2.252,0,0,0,1.1259,1.95l46.35,26.76V165.28a.02.02,0,0,0,.01.0176l1.6276.94.0015.0005a16.3442,16.3442,0,0,0,20.8539-5.49h.0015c.2861-.4239.5535-.8638.8008-1.3155a16.2661,16.2661,0,0,0,1.9843-7.8105l.1116-96.9219.0019-1.6919,0-.0029c.7886-6.3618,5.5879-11.2539,11.3891-11.2539a10.5505,10.5505,0,0,1,6.84,2.5679H91.1a13.7479,13.7479,0,0,1,4.6616,10.5351V78.8762a2.8965,2.8965,0,0,0,4.3447,2.5083l19.486-11.25a2.896,2.896,0,0,0,1.4482-2.5083v-49.52A12.8567,12.8567,0,0,0,108.4751,5.133Z"/>
        <path class="e139aeab-f556-4199-a5f9-72bc23091000" d="M38.6219,116.698v3.684l-27.768-16.0312a2.2231,2.2231,0,0,0-2.32.0518c-.05.0268-.0983.0551-.1465.0849-.05.0264-.0985.0547-.1467.085-.05.0268-.0982.0547-.1464.0849-.05.0269-.0984.0542-.1466.0845-.05.0269-.0984.0547-.1466.085-.05.0268-.0984.0551-.1466.0854-.05.0259-.0985.0542-.1466.0845-.05.0268-.0985.0547-.1466.0849-.05.0269-.0985.0552-.1466.0855-.0505.0259-.0985.0542-.1468.0845-.05.0268-.0983.0542-.1466.0844-.05.0274-.0983.0547-.1466.085-.05.0269-.0983.0552-.1466.0855-.05.0258-.0983.0542-.1466.0844-.05.0274-.0983.0547-.1466.085-.0505.0268-.0985.0542-.1469.0854-.037.0191-.0722.0406-.1077.0625l37.5713,21.691v-7.9131Z"/>
        <path class="e139aeab-f556-4199-a5f9-72bc23091000" d="M40.6489,66.4621a6.0254,6.0254,0,0,1-2.027.7173v5.2114L10.8537,56.36a2.223,2.223,0,0,0-2.3256.0556c-.05.0269-.0981.0557-.1464.087-.05.0268-.0983.0556-.1466.0869-.0507.0268-.0983.0556-.1468.0864-.05.0269-.0981.0562-.1465.0869-.05.0269-.0982.0557-.1466.0869-.0506.0269-.0982.0557-.1467.0865-.0505.0273-.0981.0561-.1465.0864-.0506.0273-.0982.0561-.1466.0864-.0505.0278-.0982.0566-.1466.0869-.0506.0269-.0983.0567-.1468.0869-.0505.0274-.098.0567-.1464.0869-.0506.0269-.0982.0562-.1466.0865-.0506.0268-.0982.0561-.1466.0869-.0506.0268-.0984.0557-.1468.0869-.0506.0269-.098.0562-.1464.0869-.0506.0269-.0982.0557-.1467.0864-.0505.0269-.0983.0557-.1466.087l-.009.0053L43.6508,79.6164l0-17.8784A6.0859,6.0859,0,0,1,40.6489,66.4621Z"/>
        <path class="e139aeab-f556-4199-a5f9-72bc23091000" d="M76.584,149.0246l-.003,2.6006a20.1281,20.1281,0,0,1-.1365,2.2881A31.016,31.016,0,0,0,91.936,127.0178V116.7043a6.7209,6.7209,0,0,1,3.3506-5.8037l19.0505-10.999c-.0369-.022-.0736-.044-.1119-.0645-.0475-.03-.0943-.0566-.1434-.0835-.0474-.0288-.0942-.0561-.1432-.0825-.0475-.03-.0944-.0566-.1435-.0835-.0474-.0288-.0941-.0561-.143-.0825-.0474-.03-.0944-.0567-.1434-.0835-.0474-.0288-.0942-.0562-.1432-.0825-.0474-.0293-.0944-.0567-.1435-.083-.0474-.0293-.0942-.0567-.1431-.083-.0474-.0293-.0943-.0567-.1432-.083-.0475-.0293-.0943-.0567-.1433-.0831-.0474-.0288-.0944-.0561-.1435-.083-.0475-.0293-.0942-.0566-.1432-.083-.0473-.0288-.0941-.0561-.1432-.0825a2.84,2.84,0,0,0-2.9429-.0508L89.892,109.9826a2.8755,2.8755,0,0,0-1.4378,2.49v10.3139a34.8557,34.8557,0,0,1-11.87,26.2378Z"/>
        <path class="e139aeab-f556-4199-a5f9-72bc23091000" d="M43.687,35.2483v4.2324a6.7124,6.7124,0,0,1,3.3149-5.27S100.1772,3.509,100.3764,3.3938a16.6132,16.6132,0,0,1,5.1423-1.8252A12.2216,12.2216,0,0,0,99.62,0a12.5914,12.5914,0,0,0-6.1845,1.5723c-.0068.0044-33.4068,19.2881-47.3542,27.3408L10.8539,8.5744a2.2247,2.2247,0,0,0-2.3193.0513c-.05.0264-.0981.0537-.1462.084-.05.0268-.0985.0547-.1468.0849-.05.0269-.0984.0542-.1466.0845-.05.0269-.0983.0547-.1465.084-.05.0269-.0985.0547-.1467.085-.05.0268-.0982.0542-.1463.0844-.05.0269-.0986.0547-.1469.085-.05.0259-.0984.0537-.1467.084-.05.0268-.0982.0542-.1464.0844-.05.0269-.0986.0547-.1468.085-.05.0264-.0984.0542-.1466.084-.05.0268-.0982.0542-.1464.085-.05.0263-.0986.0542-.1468.0844-.05.0259-.0983.0537-.1464.084-.05.0269-.0986.0542-.1468.0845-.05.0273-.0984.0547-.1467.0849-.0337.0181-.0658.0372-.0982.0567L40.6484,29.9865A6.0941,6.0941,0,0,1,43.687,35.2483Z"/>
        <path class="e139aeab-f556-4199-a5f9-72bc23091000" d="M88.4467,76.2907c.0573.0357.1141.0689.1737.1006.0572.0357.114.0689.1736.1006.0571.0357.114.0689.1735.1006.0572.0356.1141.0688.1737.1006.0572.0356.114.0688.1736.1006.0573.0356.1141.0688.1737.1.0572.0357.114.0694.1736.1011.0572.0352.114.0684.1735.1006.0572.0357.1141.0689.1737.1006.0573.0356.1141.0688.1736.1006.0573.0356.1141.0688.1737.1006.0572.0356.114.0688.1735.1006.0572.0356.1141.0688.1737.1.0572.0357.1141.0694.1736.1011.0573.0352.1141.0689.1737.1006.0571.0356.1139.0688.1734.1006.0573.0356.1142.0688.1738.1006.0572.0356.114.0688.1736.1006.0573.0356.1141.0688.1736.1.0573.0357.1141.0689.1737.1l.0168.01V54.8537a9.9838,9.9838,0,0,0-3.3032-7.6113A7.1524,7.1524,0,0,0,86.4084,45.96a14.5735,14.5735,0,0,1,.4982,3.7607V73.7434A2.8616,2.8616,0,0,0,88.4467,76.2907Z"/>
      </g>
    </g>
  </g>
</svg>
