<svg width="127" height="36" viewBox="0 0 127 36" fill="none" xmlns="http://www.w3.org/2000/svg">
<path d="M0.243056 9.15862L7.88462 13.5359C7.9591 13.5781 8.04347 13.6002 8.12927 13.5999C8.21507 13.5997 8.29929 13.577 8.37349 13.5343C8.44769 13.4916 8.50928 13.4303 8.55207 13.3565C8.59486 13.2828 8.61737 13.1992 8.61732 13.1141V7.55657C8.61747 7.4714 8.59469 7.38774 8.55134 7.31422C8.50799 7.24069 8.44563 7.17998 8.37071 7.13834L0.714846 2.76106C0.640514 2.72175 0.557153 2.70226 0.472939 2.70452C0.388725 2.70678 0.306549 2.73071 0.23447 2.77395C0.16239 2.8172 0.102881 2.87828 0.061779 2.9512C0.0206769 3.02412 -0.000607471 3.10639 1.31956e-05 3.18993V8.74039C-0.000125326 8.82513 0.0222692 8.90842 0.0649391 8.98185C0.107609 9.05527 0.169046 9.11625 0.243056 9.15862Z" fill="white"/>
<path d="M25.23 22.0636L21.0089 24.4809C20.9145 24.5345 20.836 24.6119 20.7814 24.7053C20.7268 24.7986 20.6981 24.9046 20.698 25.0125V27.2242C20.6981 28.7617 20.2211 30.2619 19.3316 31.5213C18.4422 32.7806 17.1834 33.7379 15.7263 34.2633C16.2749 34.3703 16.8328 34.4238 17.3919 34.4228C18.1569 34.4234 18.9188 34.3245 19.6579 34.1286C20.0132 34.033 20.3618 33.9146 20.7016 33.7742C22.2183 33.1599 23.5317 32.1375 24.4936 30.8223C25.4554 29.5071 26.0274 27.9515 26.145 26.331C26.145 26.129 26.1665 22.5917 26.1665 22.5917C26.1658 22.4834 26.1363 22.3773 26.0811 22.2838C26.0259 22.1904 25.9469 22.1131 25.852 22.0595C25.7571 22.006 25.6496 21.9782 25.5405 21.9789C25.4313 21.9796 25.3242 22.0088 25.23 22.0636Z" fill="white"/>
<path d="M23.4465 1.09875C22.9775 1.10033 22.517 1.22245 22.1098 1.45319L10.5724 8.04214C10.4777 8.09637 10.3991 8.17439 10.3445 8.26836C10.2899 8.36232 10.2612 8.4689 10.2614 8.57734V18.5015L0.714833 13.029C0.641301 12.9901 0.558918 12.9706 0.475596 12.9724C0.392273 12.9742 0.31081 12.9972 0.239031 13.0392C0.167251 13.0812 0.107566 13.1408 0.0657067 13.2122C0.0238478 13.2837 0.00122148 13.3646 6.38732e-07 13.4473V19.0084C0.000222315 19.0931 0.0227689 19.1762 0.0654029 19.2496C0.108037 19.3229 0.169276 19.384 0.243044 19.4266L10.0077 25.0231C10.0816 25.0647 10.1431 25.125 10.1858 25.1978C10.2286 25.2707 10.2509 25.3535 10.2507 25.4378V27.9189C10.2489 28.0012 10.2258 28.0817 10.1837 28.1527C10.1416 28.2237 10.0819 28.2828 10.0102 28.3244C9.9385 28.366 9.85726 28.3886 9.77423 28.3902C9.6912 28.3919 9.60914 28.3723 9.53587 28.3336L0.714833 23.2935C0.641301 23.2546 0.558918 23.2351 0.475596 23.2369C0.392273 23.2386 0.31081 23.2616 0.239031 23.3036C0.167251 23.3456 0.107566 23.4052 0.0657067 23.4767C0.0238478 23.5482 0.00122148 23.6291 6.38732e-07 23.7117V29.2728C-0.000137883 29.3576 0.0222567 29.4409 0.0649266 29.5143C0.107596 29.5877 0.169033 29.6487 0.243044 29.6911L10.2507 35.4258L10.6081 35.6278C11.3753 36.0079 12.2558 36.0981 13.0852 35.8815C13.9145 35.665 14.6361 35.1566 15.1151 34.4511C15.1795 34.359 15.2367 34.2633 15.2903 34.1676C15.5738 33.6559 15.7237 33.082 15.7263 32.4982L15.7478 11.7247V11.3703C15.9158 10.0093 16.9523 8.96013 18.2068 8.96013C18.7503 8.96222 19.2752 9.15709 19.6865 9.50951C20.0093 9.79109 20.2665 10.1388 20.4405 10.5286C20.6146 10.9184 20.7012 11.341 20.6944 11.7673V16.9066C20.6946 17.0155 20.7237 17.1226 20.7788 17.2168C20.834 17.3111 20.9132 17.3893 21.0085 17.4435C21.1038 17.4978 21.2118 17.5262 21.3217 17.5259C21.4316 17.5256 21.5394 17.4966 21.6344 17.4418L25.8448 15.0316C25.9402 14.977 26.0195 14.8985 26.0747 14.8039C26.1298 14.7094 26.159 14.6021 26.1593 14.4929V3.89879C26.1699 3.17191 25.891 2.47022 25.3831 1.946C24.8752 1.42178 24.1793 1.11734 23.4465 1.09875Z" fill="white"/>
<path d="M8.34926 25.0125V25.8029L2.34467 22.3649C2.26923 22.3195 2.1827 22.2955 2.09448 22.2955C2.00625 22.2955 1.91972 22.3195 1.84428 22.3649L1.81212 22.3861L1.7871 22.4145H1.75493L1.72634 22.4322H1.69417H1.662L1.62983 22.4499H1.59767L1.5655 22.4712H1.53333L1.50474 22.4889H1.47257L1.42968 22.613L1.39751 22.6307H1.36535L1.33675 22.6839H1.31531L9.43581 27.3305V25.6363L8.34926 25.0125Z" fill="white"/>
<path d="M8.78529 14.2447C8.65031 14.321 8.50262 14.3727 8.34924 14.3972V15.5172L2.34465 12.0791C2.26949 12.033 2.18285 12.0086 2.09446 12.0086C2.00606 12.0086 1.91942 12.033 1.84426 12.0791L1.8121 12.0969H1.77993L1.74776 12.1146L1.71559 12.1359L1.68343 12.1536H1.65483H1.62267L1.5905 12.1713L1.55833 12.1926H1.52616H1.494L1.46183 12.2103L1.42966 12.3343L1.40107 12.3521H1.3689L1.33673 12.4052H1.30457L9.43579 17.0661V13.2311C9.41724 13.4394 9.34846 13.6402 9.23525 13.8166C9.12204 13.993 8.96772 14.1399 8.78529 14.2447Z" fill="white"/>
<path d="M16.5519 31.9417V32.4982C16.5514 32.6616 16.5419 32.8249 16.5233 32.9873C16.8044 32.8275 17.0731 32.6474 17.3275 32.4486C18.0685 31.8562 18.677 31.1175 19.1146 30.2794C19.2527 30.0028 19.3721 29.7175 19.472 29.4252C19.7203 28.7175 19.8471 27.9735 19.8473 27.2242V25.0125C19.847 24.7614 19.9127 24.5145 20.0381 24.2963C20.1635 24.0781 20.3441 23.8962 20.5622 23.7684L24.6796 21.4114H24.6546H24.626H24.5938L24.5616 21.3937H24.533L24.5009 21.376H24.4687H24.4401V21.2661H24.408L24.3794 21.2484H24.3472H24.315L24.3043 21.1669C24.2083 21.1093 24.0983 21.0789 23.9862 21.0789C23.8741 21.0789 23.7641 21.1093 23.6681 21.1669L19.4291 23.5735C19.3347 23.6271 19.2562 23.7045 19.2016 23.7979C19.147 23.8912 19.1183 23.9972 19.1182 24.1051V26.3168C19.1213 27.1616 18.9787 28.0008 18.6964 28.7979C18.5814 29.1291 18.4416 29.4513 18.2783 29.7619C17.8439 30.5883 17.2585 31.3274 16.5519 31.9417Z" fill="white"/>
<path d="M9.44296 7.55656V8.46037C9.45994 8.22882 9.53401 8.00495 9.65864 7.80843C9.78329 7.6119 9.95469 7.44874 10.1578 7.33327L21.6952 0.726592C22.0426 0.542969 22.4182 0.41724 22.8068 0.354435C22.4185 0.131269 21.9795 0.00932743 21.5308 0C21.0619 0.00237745 20.6015 0.124441 20.194 0.354435L9.96121 6.19553L2.34467 1.83952C2.2698 1.79259 2.18305 1.76767 2.09448 1.76767C2.0059 1.76767 1.91915 1.79259 1.84428 1.83952H1.81212L1.7871 1.8856H1.7585H1.72634H1.69417H1.662L1.62983 1.90332H1.59767L1.5655 1.92458L1.53333 1.94231H1.50474H1.47257L1.42968 2.08408H1.39751L1.36892 2.12661H1.33675H1.31531L8.78531 6.4011C8.98838 6.51859 9.1563 6.68751 9.27187 6.89055C9.38743 7.09359 9.44648 7.32344 9.44296 7.55656Z" fill="white"/>
<path d="M19.1182 16.3501L19.1539 16.3749L19.1933 16.3962L19.229 16.4174L19.2683 16.4387L19.3041 16.46L19.3434 16.4812L19.3791 16.5025L19.4184 16.5238L19.4542 16.545L19.4935 16.5663L19.5292 16.5876C19.5402 16.598 19.5538 16.6053 19.5685 16.6088L19.6043 16.6337L19.6579 16.6585L19.6936 16.6797L19.733 16.701L19.7687 16.7223L19.808 16.7435L19.8438 16.7648L19.8831 16.7861V11.7566C19.8896 11.4498 19.8291 11.1452 19.7057 10.8638C19.5823 10.5824 19.399 10.3307 19.1682 10.1262C19.0253 10.0063 18.8619 9.91263 18.6857 9.84976C18.7566 10.1134 18.7926 10.385 18.793 10.6579V15.8043C18.7915 15.9161 18.821 16.0261 18.8784 16.1224C18.9358 16.2187 19.0187 16.2975 19.1182 16.3501Z" fill="white"/>
<path d="M50.796 2.36055C51.2892 2.7717 51.3393 3.26436 50.9247 3.84918L49.6165 5.67098C49.2591 6.20618 48.7694 6.30187 48.1154 5.95453C48.0332 5.9049 47.3326 5.43351 47.1718 5.35199C46.825 5.14802 46.4671 4.96343 46.0995 4.79907C45.4863 4.56673 44.8396 4.43273 44.1838 4.4021C43.3626 4.3614 42.5568 4.63408 41.9321 5.16413C41.669 5.39317 41.4588 5.67571 41.3157 5.99252C41.1726 6.30933 41.1 6.65299 41.1029 7.00011C41.1029 8.59861 42.5325 9.59458 45.5706 10.5941C46.2854 10.828 46.8001 11.0052 47.1039 11.0974C47.4077 11.1895 47.8866 11.3845 48.5729 11.668C49.1004 11.8882 49.6126 12.1428 50.1062 12.4301C50.4386 12.6498 50.871 12.9653 51.3643 13.3622C52.3722 14.1703 52.7368 14.9466 53.1514 16.102C53.3486 16.7209 53.4452 17.367 53.4373 18.016C53.4666 19.0224 53.2736 20.0229 52.8716 20.9475C52.4697 21.872 51.8686 22.6982 51.1105 23.3679C49.5629 24.7431 47.3612 25.4414 44.4876 25.4414C40.7991 25.4414 37.798 24.1961 35.4843 21.7056C35.1269 21.2449 35.1805 20.7877 35.6272 20.3127L37.3178 18.5086C37.7968 18.016 38.2757 18.0337 38.7475 18.5724C40.2415 20.1319 41.938 20.9117 43.8371 20.9117C44.9406 20.9558 46.0364 20.7113 47.0145 20.2028C47.3766 20.0015 47.6798 19.7104 47.8944 19.358C48.109 19.0056 48.2277 18.604 48.2388 18.1925C48.25 17.781 48.1533 17.3736 47.9581 17.0103C47.7629 16.647 47.476 16.3401 47.1253 16.1197C46.3748 15.5952 45.1274 15.0564 43.4046 14.5354C42.6219 14.266 41.9535 14.0286 41.4102 13.8088C40.7464 13.5379 40.1058 13.2143 39.4945 12.8412C38.83 12.4841 38.2268 12.0247 37.7074 11.4802C36.6407 10.2596 36.0566 8.6968 36.0633 7.08163C36.0309 6.12767 36.2148 5.17866 36.6014 4.30454C36.988 3.43042 37.5675 2.65346 38.2971 2.03093C39.7983 0.730148 41.7462 0.0815309 44.1874 0.0815309C46.5869 0.077069 48.917 0.88059 50.796 2.36055Z" fill="white"/>
<path d="M60.5606 1.30079C60.8358 1.57462 61.0527 1.90056 61.1982 2.25921C61.3437 2.61786 61.415 3.00188 61.4077 3.38841C61.4106 3.77301 61.3361 4.15431 61.1886 4.51C61.0411 4.8657 60.8235 5.18864 60.5486 5.45994C60.2737 5.73124 59.9469 5.94544 59.5875 6.09C59.2281 6.23456 58.8433 6.30659 58.4555 6.30187C58.0712 6.30995 57.6895 6.23811 57.3349 6.09099C56.9803 5.94387 56.6607 5.72473 56.3967 5.44768C56.1229 5.17876 55.9067 4.85772 55.7611 4.50384C55.6155 4.14996 55.5436 3.77055 55.5497 3.38841C55.5424 3.00188 55.6137 2.61786 55.7592 2.25921C55.9047 1.90056 56.1215 1.57462 56.3967 1.30079C56.6607 1.02374 56.9803 0.804594 57.3349 0.657473C57.6895 0.510353 58.0712 0.438518 58.4555 0.446597C58.8466 0.438575 59.2353 0.510246 59.5974 0.657172C59.9595 0.804099 60.2873 1.02316 60.5606 1.30079ZM59.7636 8.61279C59.8896 8.59447 60.0182 8.60482 60.1396 8.64306C60.2611 8.68129 60.3721 8.74641 60.4644 8.83349C60.5567 8.92056 60.6278 9.02731 60.6723 9.14566C60.7169 9.26401 60.7337 9.39085 60.7215 9.5166V23.9846C60.7215 24.5872 60.4034 24.8849 59.7636 24.8849H57.226C57.1001 24.9038 56.9716 24.894 56.8501 24.8563C56.7287 24.8185 56.6176 24.7537 56.5252 24.6669C56.4328 24.5801 56.3616 24.4735 56.3171 24.3553C56.2725 24.237 56.2558 24.1103 56.2681 23.9846V9.5166C56.2559 9.39085 56.2727 9.26401 56.3172 9.14566C56.3618 9.02731 56.4329 8.92056 56.5252 8.83349C56.6175 8.74641 56.7285 8.68129 56.8499 8.64306C56.9713 8.60482 57.0999 8.59447 57.226 8.61279H59.7636Z" fill="white"/>
<path d="M79.443 25.1224C81.23 26.2176 82.1093 27.7665 82.1093 29.7619C82.139 30.6883 81.9159 31.6054 81.4636 32.4164C81.0113 33.2274 80.3465 33.9022 79.5395 34.3696C77.8167 35.4329 75.3577 35.9858 72.1803 35.9858C69.0028 35.9858 66.5795 35.4613 64.8389 34.4192C64.0292 33.9804 63.3575 33.328 62.8983 32.5342C62.4391 31.7404 62.2102 30.8362 62.2369 29.9214C62.2369 27.2455 63.9597 25.2535 67.0084 24.2221C66.7632 23.9969 66.5693 23.7222 66.4398 23.4165C66.3104 23.1109 66.2483 22.7813 66.2579 22.4499C66.2579 21.5001 66.7547 20.7699 67.7268 20.2808C65.636 19.0757 64.2956 17.0909 64.2956 14.741C64.2956 12.6356 65.0105 11.0052 66.3865 9.83204C67.7626 8.65886 69.6748 8.09177 72.0838 8.09177H79.5895C80.3043 8.09177 80.6618 8.4462 80.6618 9.15507L80.6296 10.6721C80.6476 10.8108 80.6311 10.9517 80.5813 11.0826C80.5316 11.2135 80.4502 11.3302 80.3443 11.4226C80.2385 11.515 80.1113 11.5802 79.9741 11.6125C79.8369 11.6448 79.6938 11.6432 79.5573 11.6078L77.1626 11.2285C78.0096 11.5562 78.7402 12.1245 79.2629 12.8622C79.7855 13.5999 80.0769 14.4742 80.1006 15.3754C80.1274 16.2273 79.9422 17.0727 79.5613 17.8367C79.1804 18.6008 78.6156 19.26 77.9168 19.7562C76.4478 20.8514 74.5321 21.3866 72.1981 21.3866C70.7148 21.3866 70.0107 21.6418 70.0107 22.418C70.0107 23.1269 70.747 23.4601 72.1981 23.4601C75.229 23.4601 77.6559 24.0165 79.443 25.1224ZM72.1981 32.4698C73.8744 32.4698 75.1826 32.2324 76.1297 31.761C77.0769 31.2896 77.5594 30.5878 77.5594 29.6556C77.5594 27.8019 75.5007 26.8698 72.1981 26.8698C70.8791 26.8215 69.5657 27.0636 68.3523 27.5786C67.3444 28.0536 66.8333 28.7483 66.8333 29.6521C66.8333 30.5559 67.3122 31.2825 68.263 31.7574C69.2137 32.2324 70.5361 32.4698 72.1981 32.4698ZM72.1981 11.7956C71.2686 11.7438 70.3495 12.0117 69.5961 12.5541C69.2762 12.8127 69.0225 13.1429 68.856 13.5174C68.6895 13.892 68.6149 14.3004 68.6383 14.7091C68.6166 15.1217 68.6918 15.5337 68.8581 15.9125C69.0243 16.2914 69.2769 16.6268 69.5961 16.8924C70.3618 17.4076 71.2657 17.683 72.191 17.683C73.1162 17.683 74.0202 17.4076 74.7858 16.8924C75.0992 16.623 75.3467 16.2864 75.5096 15.9082C75.6725 15.5299 75.7464 15.1199 75.7258 14.7091C75.7482 14.3022 75.6749 13.8958 75.5118 13.5218C75.3487 13.1478 75.1001 12.8165 74.7858 12.5541C74.0369 12.0138 73.123 11.7459 72.1981 11.7956Z" fill="white"/>
<path d="M106.467 9.75406C107.375 10.8174 107.822 12.2705 107.822 14.0604V24.0484C107.83 24.1703 107.813 24.2926 107.771 24.4075C107.729 24.5223 107.663 24.627 107.577 24.7149C107.492 24.8028 107.388 24.8719 107.274 24.9177C107.16 24.9634 107.037 24.9849 106.914 24.9806H104.23C103.64 24.9806 103.354 24.6793 103.354 24.0803L103.322 15.3258C103.322 13.1992 102.507 12.1359 100.863 12.1359C99.0258 12.1359 97.9571 13.784 97.9571 16.4564V24.0165C97.9747 24.1349 97.964 24.2557 97.926 24.3693C97.8879 24.4828 97.8236 24.5859 97.7381 24.6704C97.6526 24.7548 97.5483 24.8182 97.4337 24.8554C97.319 24.8927 97.1972 24.9028 97.0779 24.8849H94.3579C94.2387 24.8874 94.1202 24.8657 94.0097 24.8212C93.8992 24.7766 93.799 24.7102 93.7154 24.6259C93.6317 24.5416 93.5663 24.4412 93.5231 24.3309C93.48 24.2207 93.46 24.1028 93.4644 23.9846V15.2407C93.4644 13.1141 92.603 12.0508 90.8803 12.0508C89.1468 12.0508 87.9244 13.4898 87.9244 15.8787V23.9846C87.9244 24.5872 87.6028 24.8849 86.9808 24.8849H84.4217C83.7998 24.8849 83.4782 24.5872 83.4782 23.9846V9.54848C83.4611 9.42161 83.4738 9.29255 83.5151 9.17131C83.5565 9.05008 83.6255 8.93993 83.7168 8.84942C83.8081 8.75892 83.9191 8.69049 84.0414 8.64945C84.1637 8.60841 84.2938 8.59586 84.4217 8.61277H86.9737C87.1022 8.59465 87.2332 8.60629 87.3563 8.64679C87.4795 8.6873 87.5916 8.75555 87.6837 8.84621C87.7758 8.93687 87.8455 9.04746 87.8872 9.1693C87.929 9.29115 87.9417 9.42094 87.9244 9.54848V11.0832C88.9943 9.10544 90.6062 8.1083 92.7603 8.09176C94.9143 8.07521 96.4309 8.94004 97.3102 10.6862C97.8528 9.88242 98.5923 9.2283 99.4593 8.78508C100.326 8.34186 101.293 8.12404 102.268 8.15201C104.165 8.15201 105.556 8.6943 106.467 9.75406Z" fill="white"/>
<path d="M123.827 9.72215C125.282 10.8457 126 12.5576 126 14.8969V24.0165C126 24.6014 125.728 24.8849 125.167 24.8849H122.358C121.865 24.8849 121.607 24.6014 121.607 24.0484V22.7512C120.474 24.5234 118.784 25.4414 116.518 25.4414C114.616 25.4414 113.069 24.9806 111.839 24.0484C111.242 23.6023 110.764 23.0194 110.444 22.3497C110.124 21.68 109.972 20.9433 110.002 20.2028C110.002 16.7223 112.623 14.9702 117.865 14.9465L121.579 14.8863V14.7303C121.579 12.8766 120.349 11.7531 118.241 11.7531C117.061 11.7531 115.781 12.2741 114.427 13.3055C114.341 13.3743 114.242 13.4243 114.135 13.4521C114.028 13.4799 113.917 13.4849 113.808 13.4668C113.699 13.4487 113.595 13.4079 113.504 13.3471C113.412 13.2863 113.334 13.2069 113.276 13.1141L112 11.5794C111.643 11.1505 111.664 10.7571 112.032 10.4239C112.787 9.68995 113.683 9.11381 114.666 8.72973C115.842 8.258 117.101 8.02653 118.369 8.04922C120.557 8.05631 122.376 8.61395 123.827 9.72215ZM121.579 17.8742H117.794C115.542 17.8742 114.427 18.583 114.427 19.9512C114.427 21.3193 115.463 22.0246 117.554 22.0246C119.917 22.0069 121.522 20.5324 121.579 17.8564V17.8742Z" fill="white"/>
<path d="M89.4042 27.1037C89.4362 27.1012 89.4684 27.1068 89.4978 27.1198C89.5272 27.1328 89.5528 27.153 89.5723 27.1783C89.5919 27.2037 89.6047 27.2335 89.6097 27.265C89.6146 27.2965 89.6116 27.3288 89.6007 27.3589L88.6143 31.4845C88.6027 31.5616 88.5618 31.6314 88.5 31.6795C88.4382 31.7276 88.3601 31.7504 88.2819 31.7432H87.3883C87.3135 31.7507 87.2386 31.7301 87.1784 31.6855C87.1182 31.6409 87.077 31.5755 87.0631 31.5022L86.5663 29.1842L86.1874 31.488C86.1588 31.6582 86.0409 31.7432 85.83 31.7432H84.9901C84.9099 31.754 84.8287 31.7344 84.7625 31.6885C84.6962 31.6425 84.6499 31.5735 84.6326 31.4951L83.4782 27.3447C83.4424 27.1852 83.4996 27.1037 83.6533 27.1037H84.4504C84.5138 27.0956 84.5779 27.1126 84.6288 27.1511C84.6796 27.1896 84.7131 27.2464 84.722 27.3092L85.4368 30.6055L85.9908 27.3199C86.0054 27.2536 86.044 27.1949 86.0994 27.1551C86.1548 27.1152 86.223 27.0969 86.2911 27.1037H86.8022C86.8698 27.0945 86.9384 27.112 86.9932 27.1524C87.048 27.1929 87.0846 27.253 87.0952 27.3199L87.7815 30.5984L88.3712 27.3163C88.3752 27.2844 88.3855 27.2536 88.4015 27.2257C88.4174 27.1977 88.4388 27.1732 88.4644 27.1534C88.4899 27.1337 88.5192 27.1191 88.5504 27.1106C88.5817 27.1021 88.6143 27.0997 88.6464 27.1037H89.4042Z" fill="white"/>
<path d="M92.1562 28.8156C92.3185 28.9392 92.4465 29.1015 92.5283 29.2875C92.6102 29.4734 92.6433 29.6769 92.6245 29.8789V31.5447C92.6245 31.6723 92.5637 31.7361 92.4457 31.7361H91.7988C91.6809 31.7361 91.6237 31.6688 91.6237 31.5376V31.2931C91.5387 31.4664 91.4035 31.6105 91.2354 31.7072C91.0673 31.8038 90.874 31.8484 90.6801 31.8354C90.3723 31.8481 90.0691 31.7582 89.8187 31.5802C89.7061 31.4992 89.6147 31.3925 89.5525 31.2691C89.4903 31.1457 89.459 31.0093 89.4613 30.8713C89.458 30.7354 89.4866 30.6006 89.5449 30.4775C89.6032 30.3545 89.6896 30.2466 89.7973 30.1624C90.0859 29.961 90.4352 29.8635 90.7873 29.886H91.5987V29.8222C91.5987 29.5315 91.3842 29.3614 91.0661 29.3614C90.9688 29.3634 90.8724 29.3802 90.7802 29.411C90.7347 29.4235 90.6913 29.4426 90.6515 29.4677L90.5479 29.528L90.4442 29.5989L90.3549 29.6627C90.3346 29.6782 90.3112 29.6891 90.2863 29.6949C90.2613 29.7006 90.2355 29.7009 90.2104 29.6959C90.1853 29.6909 90.1616 29.6805 90.1409 29.6656C90.1202 29.6507 90.103 29.6316 90.0904 29.6095L89.8223 29.2834C89.8051 29.2672 89.7914 29.2477 89.7821 29.2261C89.7727 29.2044 89.7679 29.1811 89.7679 29.1576C89.7679 29.1341 89.7727 29.1108 89.7821 29.0892C89.7914 29.0675 89.8051 29.048 89.8223 29.0318C89.9782 28.8795 90.1628 28.759 90.3656 28.6774C90.6053 28.5824 90.8616 28.5354 91.1197 28.5391C91.4856 28.5238 91.8475 28.6203 92.1562 28.8156ZM91.3949 30.9776C91.4635 30.9192 91.5188 30.8469 91.557 30.7656C91.5952 30.6843 91.6155 30.5959 91.6165 30.5062V30.4566H90.9625C90.6587 30.4566 90.4764 30.5984 90.4764 30.8111C90.4764 31.0237 90.6301 31.1371 90.9374 31.1371C91.104 31.1385 91.2658 31.082 91.3949 30.9776Z" fill="white"/>
<path d="M94.3293 27.646C94.3557 27.6438 94.3822 27.6474 94.407 27.6564C94.4319 27.6655 94.4544 27.6798 94.4731 27.6983C94.4918 27.7168 94.5062 27.7392 94.5154 27.7638C94.5245 27.7885 94.5281 27.8148 94.5259 27.8409V28.6348H95.0299C95.0547 28.6339 95.0795 28.6379 95.1027 28.6468C95.1259 28.6557 95.147 28.6692 95.1647 28.6864C95.1825 28.7037 95.1965 28.7244 95.2058 28.7472C95.2152 28.77 95.2198 28.7945 95.2193 28.8191V29.2374C95.2198 29.262 95.2152 29.2865 95.2058 29.3093C95.1965 29.3322 95.1825 29.3528 95.1647 29.3701C95.147 29.3874 95.1259 29.4008 95.1027 29.4097C95.0795 29.4186 95.0547 29.4227 95.0299 29.4217H94.5259V30.4283C94.5259 30.7827 94.7153 30.882 95.1371 30.882C95.2765 30.882 95.3444 30.9528 95.3444 31.0946V31.6086C95.3484 31.636 95.3456 31.664 95.3364 31.6902C95.3272 31.7164 95.3118 31.74 95.2915 31.7591C95.2712 31.7782 95.2466 31.7922 95.2197 31.7999C95.1929 31.8076 95.1645 31.8089 95.1371 31.8035C94.7681 31.8181 94.4008 31.7465 94.0648 31.5944C93.8954 31.5144 93.7535 31.3867 93.6569 31.2272C93.5603 31.0677 93.5132 30.8835 93.5216 30.6977V29.4181H93.1034C93.0787 29.4191 93.0541 29.4151 93.0311 29.4061C93.0081 29.3972 92.9872 29.3837 92.9697 29.3664C92.9523 29.3491 92.9386 29.3283 92.9296 29.3055C92.9207 29.2827 92.9165 29.2583 92.9175 29.2338V28.8191C92.9165 28.7947 92.9207 28.7703 92.9296 28.7474C92.9386 28.7246 92.9523 28.7039 92.9697 28.6866C92.9872 28.6693 93.0081 28.6557 93.0311 28.6468C93.0541 28.6379 93.0787 28.6338 93.1034 28.6348H93.5216V27.8409C93.52 27.8161 93.5238 27.7913 93.5325 27.7681C93.5413 27.7449 93.5549 27.7237 93.5724 27.706C93.5899 27.6883 93.611 27.6744 93.6342 27.6653C93.6575 27.6562 93.6824 27.652 93.7074 27.653L94.3293 27.646Z" fill="white"/>
<path d="M98.5504 29.0176C98.706 29.1827 98.8271 29.3767 98.9068 29.5884C98.9866 29.8 99.0233 30.0252 99.0151 30.2511C99.0198 30.2847 99.0166 30.3191 99.0057 30.3513C98.9948 30.3836 98.9765 30.4129 98.9523 30.4369C98.928 30.461 98.8985 30.4791 98.866 30.4899C98.8334 30.5007 98.7988 30.5039 98.7649 30.4992H96.5953C96.6025 30.5762 96.6271 30.6506 96.6674 30.7169C96.7076 30.7832 96.7624 30.8396 96.8277 30.8819C96.9831 30.9966 97.1739 31.0543 97.3674 31.045C97.6425 31.0403 97.908 30.9442 98.1215 30.7721C98.1623 30.7403 98.2142 30.7258 98.2658 30.7318C98.3173 30.7377 98.3644 30.7637 98.3967 30.804L98.6684 31.2187C98.6828 31.2376 98.6933 31.2592 98.6992 31.2823C98.705 31.3053 98.7061 31.3293 98.7025 31.3527C98.6988 31.3762 98.6904 31.3987 98.6778 31.4189C98.6652 31.4391 98.6486 31.4566 98.629 31.4703C98.2964 31.7238 97.8826 31.8497 97.4639 31.8247C97.2235 31.8364 96.9833 31.8007 96.7569 31.7198C96.5306 31.6389 96.3226 31.5144 96.145 31.3533C95.983 31.2034 95.8542 31.0217 95.7668 30.8197C95.6794 30.6177 95.6354 30.3999 95.6375 30.1802C95.6354 29.9594 95.6785 29.7405 95.7643 29.5367C95.85 29.333 95.9766 29.1486 96.1364 28.9949C96.2961 28.8411 96.4857 28.7211 96.6936 28.6421C96.9015 28.5632 97.1234 28.5269 97.3459 28.5356C97.5695 28.5278 97.7923 28.5667 97.9998 28.6497C98.2073 28.7328 98.3949 28.8581 98.5504 29.0176ZM97.3209 29.248C97.1378 29.2401 96.9587 29.3023 96.8205 29.4217C96.6874 29.5353 96.6031 29.695 96.5846 29.8683H98.0572C98.0344 29.693 97.9465 29.5324 97.8106 29.4181C97.6746 29.3026 97.4998 29.2419 97.3209 29.248Z" fill="white"/>
<path d="M101.917 28.7483L101.678 29.4571C101.669 29.488 101.649 29.5147 101.623 29.5329C101.596 29.551 101.564 29.5593 101.531 29.5564H101.37C101.193 29.5584 101.021 29.6114 100.874 29.7088C100.779 29.7757 100.702 29.8654 100.652 29.9695C100.601 30.0736 100.578 30.1888 100.584 30.3042V31.5447C100.584 31.6794 100.513 31.7503 100.366 31.7503H99.7764C99.6334 31.7503 99.5583 31.6794 99.5619 31.5447V28.8369C99.558 28.8085 99.561 28.7796 99.5705 28.7525C99.5801 28.7255 99.596 28.7011 99.617 28.6814C99.6379 28.6617 99.6633 28.6472 99.691 28.6391C99.7187 28.631 99.748 28.6295 99.7764 28.6348H100.366C100.513 28.6348 100.584 28.7022 100.584 28.8369V29.2728C100.641 29.0615 100.767 28.8747 100.942 28.7415C101.118 28.6082 101.332 28.5359 101.553 28.5356C101.64 28.5334 101.726 28.5441 101.81 28.5675C101.91 28.5994 101.942 28.6596 101.917 28.7483Z" fill="white"/>
<path d="M106.742 27.4368C106.767 27.4566 106.787 27.4811 106.801 27.5086C106.816 27.5362 106.825 27.5664 106.827 27.5974C106.83 27.6285 106.826 27.6597 106.817 27.6894C106.807 27.719 106.791 27.7464 106.771 27.77L106.492 28.1599C106.476 28.1865 106.454 28.2096 106.429 28.2277C106.403 28.2458 106.374 28.2586 106.343 28.2652C106.312 28.2718 106.281 28.2722 106.25 28.2663C106.219 28.2604 106.189 28.2483 106.163 28.2308C106.163 28.2308 106.095 28.1882 106.003 28.1315C105.919 28.0811 105.83 28.0383 105.738 28.0039C105.66 27.9786 105.578 27.9655 105.495 27.9649C105.441 27.9615 105.388 27.9691 105.337 27.9872C105.287 28.0053 105.241 28.0335 105.202 28.0701C105.163 28.1067 105.132 28.1509 105.111 28.1999C105.09 28.2489 105.08 28.3016 105.08 28.3548C105.087 28.4743 105.141 28.5862 105.231 28.6667C105.286 28.7163 105.349 28.758 105.416 28.7908L105.62 28.89L105.87 28.9963L106.156 29.1098L106.424 29.2303C106.52 29.2728 106.613 29.3238 106.7 29.3827C106.76 29.4288 106.839 29.4926 106.925 29.567C107.073 29.6952 107.178 29.8661 107.225 30.0561C107.258 30.1713 107.274 30.2908 107.271 30.4105C107.275 30.6034 107.237 30.7948 107.159 30.9716C107.082 31.1484 106.966 31.3065 106.821 31.4349C106.468 31.7278 106.015 31.8761 105.556 31.8495C105.233 31.8719 104.91 31.8217 104.61 31.7026C104.309 31.5836 104.04 31.3987 103.822 31.1619C103.8 31.1427 103.783 31.1189 103.77 31.0923C103.758 31.0658 103.752 31.0369 103.752 31.0078C103.752 30.9786 103.758 30.9498 103.77 30.9232C103.783 30.8966 103.8 30.8729 103.822 30.8536L104.215 30.4247C104.233 30.3991 104.256 30.3782 104.284 30.3637C104.311 30.3492 104.342 30.3416 104.373 30.3416C104.404 30.3416 104.434 30.3492 104.462 30.3637C104.489 30.3782 104.513 30.3991 104.53 30.4247C104.632 30.5461 104.76 30.6435 104.905 30.7097C105.049 30.7759 105.207 30.8093 105.366 30.8075C105.838 30.8075 106.081 30.6657 106.081 30.3786C106.081 30.3169 106.062 30.2565 106.028 30.2049C105.994 30.1533 105.945 30.1127 105.888 30.088L105.702 29.9852L105.438 29.8824L105.163 29.7761C105.007 29.7182 104.857 29.6482 104.712 29.567C104.575 29.4913 104.446 29.4023 104.326 29.3012C104.191 29.184 104.085 29.0378 104.016 28.8738C103.947 28.7099 103.916 28.5324 103.926 28.3548C103.92 28.17 103.956 27.9862 104.03 27.8165C104.104 27.6468 104.215 27.4954 104.355 27.373C104.671 27.1091 105.075 26.9736 105.488 26.9938C105.944 26.9985 106.386 27.1544 106.742 27.4368Z" fill="white"/>
<path d="M111.157 28.6348C111.299 28.6348 111.364 28.7341 111.292 28.8652L109.92 31.7007L109.012 33.6146C108.948 33.7564 108.887 33.7954 108.758 33.7954H108.001C107.868 33.7954 107.818 33.6962 107.883 33.565L108.812 31.7928L107.468 28.8759C107.404 28.7341 107.468 28.6348 107.597 28.6348H108.358C108.417 28.6297 108.475 28.644 108.525 28.6754C108.575 28.7068 108.613 28.7536 108.633 28.8085L109.369 30.7118L110.174 28.8156C110.192 28.7621 110.228 28.7158 110.275 28.6834C110.321 28.6509 110.377 28.6339 110.435 28.6348H111.157Z" fill="white"/>
<path d="M113.991 28.8829C114.015 28.8984 114.036 28.9191 114.051 28.9435C114.067 28.9679 114.076 28.9955 114.079 29.0241C114.082 29.0527 114.079 29.0817 114.069 29.1088C114.059 29.1359 114.044 29.1604 114.023 29.1807L113.809 29.4819C113.794 29.5059 113.774 29.5264 113.751 29.5421C113.728 29.5579 113.701 29.5685 113.673 29.5732C113.646 29.5779 113.617 29.5766 113.59 29.5694C113.563 29.5622 113.537 29.5493 113.515 29.5315C113.338 29.4111 113.133 29.3368 112.919 29.3153C112.751 29.3153 112.676 29.4004 112.676 29.5209C112.676 29.6414 112.729 29.6662 112.886 29.7407C112.949 29.7727 113.013 29.8011 113.079 29.8257L113.322 29.9143C113.344 29.9256 113.367 29.9339 113.39 29.9391C113.53 29.9852 113.644 30.0313 113.748 30.0703C113.846 30.1214 113.942 30.1782 114.034 30.2404C114.132 30.3128 114.211 30.4084 114.263 30.5186C114.315 30.6287 114.338 30.75 114.33 30.8713C114.336 31.0044 114.311 31.137 114.259 31.2596C114.206 31.3822 114.127 31.4917 114.027 31.5802C113.756 31.7887 113.417 31.8887 113.076 31.8602C112.804 31.8809 112.531 31.8396 112.277 31.7395C112.024 31.6393 111.797 31.483 111.614 31.2825C111.54 31.195 111.558 31.0993 111.668 30.9954L111.957 30.7224C111.977 30.7029 112.002 30.6878 112.028 30.678C112.055 30.6682 112.083 30.664 112.111 30.6657C112.139 30.6674 112.167 30.6748 112.192 30.6877C112.217 30.7005 112.24 30.7184 112.257 30.7402C112.346 30.8517 112.46 30.9416 112.59 31.003C112.719 31.0644 112.861 31.0957 113.004 31.0946C113.23 31.0946 113.34 31.0273 113.34 30.8855C113.34 30.8111 113.301 30.7508 113.169 30.687L113.004 30.6161L112.772 30.5311L112.543 30.4531C112.316 30.3807 112.107 30.2597 111.932 30.0986C111.853 30.0191 111.792 29.924 111.753 29.8196C111.714 29.7153 111.697 29.6038 111.703 29.4926C111.705 29.3651 111.736 29.2397 111.795 29.1264C111.854 29.0132 111.939 28.9152 112.043 28.8404C112.286 28.6506 112.588 28.5526 112.897 28.5639C113.284 28.5679 113.663 28.6784 113.991 28.8829Z" fill="white"/>
<path d="M115.903 27.646C115.929 27.6438 115.956 27.6474 115.981 27.6564C116.006 27.6655 116.028 27.6798 116.047 27.6983C116.065 27.7168 116.08 27.7392 116.089 27.7638C116.098 27.7885 116.102 27.8148 116.1 27.8409V28.6348H116.604C116.628 28.6339 116.653 28.6379 116.676 28.6468C116.7 28.6557 116.721 28.6692 116.738 28.6864C116.756 28.7037 116.77 28.7244 116.779 28.7472C116.789 28.77 116.793 28.7945 116.793 28.8191V29.2374C116.793 29.262 116.789 29.2865 116.779 29.3093C116.77 29.3322 116.756 29.3528 116.738 29.3701C116.721 29.3874 116.7 29.4008 116.676 29.4097C116.653 29.4186 116.628 29.4227 116.604 29.4217H116.1V30.4283C116.1 30.7827 116.289 30.882 116.711 30.882C116.739 30.8783 116.769 30.8813 116.796 30.8908C116.823 30.9003 116.848 30.916 116.868 30.9366C116.888 30.9573 116.903 30.9823 116.912 31.0098C116.921 31.0372 116.923 31.0663 116.918 31.0946V31.6086C116.921 31.6358 116.918 31.6635 116.908 31.6893C116.899 31.7151 116.884 31.7384 116.863 31.7573C116.843 31.7762 116.819 31.7903 116.793 31.7983C116.766 31.8063 116.738 31.8081 116.711 31.8035C116.336 31.82 115.962 31.7483 115.621 31.5944C115.453 31.5125 115.314 31.3841 115.219 31.2248C115.125 31.0655 115.079 30.8823 115.088 30.6977V29.4181H114.659C114.635 29.4186 114.611 29.4142 114.588 29.4051C114.565 29.3959 114.545 29.3823 114.528 29.365C114.511 29.3478 114.497 29.3272 114.489 29.3047C114.48 29.2821 114.476 29.258 114.477 29.2338V28.8191C114.476 28.795 114.48 28.7709 114.489 28.7483C114.497 28.7257 114.511 28.7052 114.528 28.6879C114.545 28.6707 114.565 28.657 114.588 28.6479C114.611 28.6388 114.635 28.6343 114.659 28.6348H115.088V27.8409C115.087 27.8161 115.09 27.7913 115.099 27.7681C115.108 27.7449 115.121 27.7237 115.139 27.706C115.156 27.6883 115.177 27.6744 115.201 27.6653C115.224 27.6562 115.249 27.652 115.274 27.653L115.903 27.646Z" fill="white"/>
<path d="M120.124 29.0176C120.279 29.1829 120.4 29.377 120.479 29.5887C120.558 29.8004 120.594 30.0255 120.585 30.2511C120.591 30.2845 120.588 30.3188 120.578 30.3511C120.567 30.3834 120.549 30.4128 120.525 30.437C120.501 30.4611 120.472 30.4793 120.439 30.4901C120.407 30.5009 120.372 30.504 120.339 30.4992H118.169C118.176 30.5762 118.201 30.6506 118.241 30.7169C118.281 30.7832 118.336 30.8396 118.401 30.8819C118.557 30.9966 118.748 31.0543 118.941 31.045C119.216 31.0397 119.481 30.9437 119.695 30.7721C119.736 30.7403 119.788 30.7258 119.839 30.7318C119.891 30.7377 119.938 30.7637 119.97 30.804L120.242 31.2187C120.256 31.2378 120.267 31.2596 120.272 31.2828C120.278 31.306 120.279 31.33 120.275 31.3535C120.271 31.377 120.262 31.3995 120.249 31.4195C120.236 31.4396 120.219 31.4569 120.199 31.4703C119.867 31.7247 119.453 31.8507 119.034 31.8247C118.792 31.8347 118.55 31.7965 118.323 31.7125C118.096 31.6286 117.888 31.5004 117.712 31.3356C117.554 31.1849 117.428 31.0046 117.341 30.8053C117.254 30.606 117.208 30.3916 117.205 30.1744C117.202 29.9573 117.242 29.7417 117.323 29.5401C117.405 29.3385 117.526 29.1549 117.679 28.9999C117.839 28.8384 118.032 28.712 118.244 28.629C118.457 28.5459 118.684 28.5081 118.912 28.5179C119.139 28.5114 119.364 28.5525 119.572 28.6387C119.781 28.7248 119.969 28.854 120.124 29.0176ZM118.891 29.248C118.709 29.2411 118.531 29.3032 118.394 29.4217C118.26 29.535 118.174 29.6946 118.155 29.8683H119.631C119.609 29.6916 119.52 29.5298 119.383 29.4149C119.246 29.3 119.07 29.2404 118.891 29.248Z" fill="white"/>
<path d="M124.885 28.5675C125.04 28.5538 125.196 28.5737 125.342 28.6257C125.488 28.6777 125.621 28.7607 125.732 28.8688C125.921 29.1004 126.017 29.3935 126 29.691V31.5695C126.002 31.5965 125.997 31.6234 125.988 31.6486C125.978 31.6739 125.963 31.6968 125.944 31.7158C125.925 31.7349 125.901 31.7497 125.876 31.7593C125.851 31.7689 125.823 31.7731 125.796 31.7716H125.171C125.143 31.7752 125.115 31.7724 125.089 31.7635C125.063 31.7545 125.039 31.7397 125.02 31.7201C125 31.7005 124.986 31.6767 124.977 31.6506C124.969 31.6244 124.967 31.5967 124.971 31.5695V29.9746C124.971 29.6379 124.842 29.4677 124.581 29.4677C124.32 29.4677 124.102 29.7407 124.077 30.2121V31.5376C124.081 31.5646 124.079 31.5921 124.07 31.6181C124.062 31.644 124.048 31.6678 124.029 31.6875C124.01 31.7073 123.987 31.7226 123.961 31.7322C123.935 31.7419 123.908 31.7456 123.881 31.7432H123.248C123.22 31.7462 123.192 31.7429 123.166 31.7335C123.14 31.7241 123.116 31.7089 123.097 31.6891C123.078 31.6692 123.063 31.6453 123.055 31.619C123.046 31.5928 123.044 31.5649 123.048 31.5376V29.9462C123.048 29.5918 122.919 29.4394 122.658 29.4394C122.397 29.4394 122.165 29.645 122.129 30.01V31.5447C122.133 31.5732 122.13 31.6022 122.12 31.6293C122.111 31.6565 122.095 31.681 122.074 31.701C122.053 31.7209 122.028 31.7358 122 31.7444C121.973 31.7529 121.943 31.755 121.915 31.7503H121.329C121.182 31.7503 121.111 31.6794 121.111 31.5447V28.8369C121.111 28.7022 121.182 28.6313 121.329 28.6348H121.915C122.062 28.6348 122.134 28.7022 122.129 28.8369V29.1417C122.207 28.9544 122.341 28.7956 122.513 28.6871C122.685 28.5785 122.887 28.5256 123.091 28.5356C123.265 28.5212 123.44 28.5591 123.592 28.6444C123.744 28.7297 123.867 28.8585 123.945 29.0141C124.055 28.872 124.198 28.7575 124.361 28.68C124.525 28.6024 124.704 28.5639 124.885 28.5675Z" fill="white"/>
</svg>