<svg xmlns="http://www.w3.org/2000/svg" xmlns:xlink="http://www.w3.org/1999/xlink" viewBox="0 0 73.1954 101.5676">
  <defs>
    <linearGradient id="a6c3b07f-be75-4d43-80e5-134d8a513ea1" x1="27.1502" y1="84.574" x2="47.6208" y2="-7.5438" gradientUnits="userSpaceOnUse">
      <stop offset="0" stop-color="#fed061"/>
      <stop offset="0.4944" stop-color="#812082"/>
      <stop offset="1" stop-color="#50368c"/>
    </linearGradient>
    <linearGradient id="b0e15640-1681-40fa-94dc-87a9ffaa98b0" x1="29.6317" y1="-14.197" x2="-14.7213" y2="79.6267" xlink:href="#a6c3b07f-be75-4d43-80e5-134d8a513ea1"/>
    <linearGradient id="e0027c72-6352-43cc-b636-a80d97dab012" x1="92.5569" y1="15.5495" x2="48.2039" y2="109.3732" xlink:href="#a6c3b07f-be75-4d43-80e5-134d8a513ea1"/>
    <linearGradient id="e846bc58-b5cf-42b2-9f84-83a111974372" x1="36.8705" y1="34.8957" x2="20.5542" y2="69.4109" xlink:href="#a6c3b07f-be75-4d43-80e5-134d8a513ea1"/>
    <linearGradient id="adb5fe15-60ae-437a-9c06-f38d5f494499" x1="63.4453" y1="1.7876" x2="19.0923" y2="95.6113" xlink:href="#a6c3b07f-be75-4d43-80e5-134d8a513ea1"/>
    <linearGradient id="e9e01791-b19f-43be-99b5-b1b36df6e30a" x1="65.1194" y1="2.579" x2="20.7664" y2="96.4027" xlink:href="#a6c3b07f-be75-4d43-80e5-134d8a513ea1"/>
    <linearGradient id="a51ba690-791d-458b-8f3b-caa112d17a85" x1="43.764" y1="-7.5162" x2="-0.589" y2="86.3075" xlink:href="#a6c3b07f-be75-4d43-80e5-134d8a513ea1"/>
    <linearGradient id="ab19757c-2c01-41cb-b441-85ed3b58f1a1" x1="54.8054" y1="-2.2967" x2="10.4524" y2="91.527" xlink:href="#a6c3b07f-be75-4d43-80e5-134d8a513ea1"/>
    <linearGradient id="fb0c70d0-404b-410d-9418-9784ce30d38c" x1="36.3531" y1="62.7797" x2="36.3531" y2="17.148" gradientUnits="userSpaceOnUse">
      <stop offset="0.4001" stop-color="#944493" stop-opacity="0"/>
      <stop offset="1" stop-color="#301350"/>
    </linearGradient>
    <linearGradient id="b43996e3-a576-4282-8199-dd99ef5dd9c7" x1="9.1214" y1="83.4305" x2="28.9822" y2="81.1155" xlink:href="#fb0c70d0-404b-410d-9418-9784ce30d38c"/>
    <linearGradient id="a8e4cf0e-15be-4a38-bfdf-97157446d1a7" x1="7.7615" y1="44.4636" x2="25.6727" y2="67.9797" xlink:href="#fb0c70d0-404b-410d-9418-9784ce30d38c"/>
  </defs>
  <g style="isolation: isolate">
    <g id="b840ea56-d38a-42ca-8f88-8432a4a0fbc7" data-name="Layer 2">
      <g>
        <path d="M53.4855,46.1344c.0346.0217.0689.0417.105.0608.0346.0217.0689.0417.105.0608.0345.0217.0689.0417.1049.0608.0346.0217.069.0417.105.0608.0346.0217.069.0417.105.0609.0347.0216.069.0416.105.0608.0347.0216.069.042.105.0612.0346.0212.069.0412.1049.0608.0347.0216.0691.0416.1051.0608.0346.0216.069.0416.105.0608.0346.0217.069.0416.105.0608.0346.0217.0689.0417.1049.0608.0346.0217.069.0417.1051.0608.0346.0217.0689.0421.105.0612.0346.0213.0689.0417.105.0608.0345.0217.0689.0417.1049.0608.0346.0217.069.0417.105.0609.0346.0216.069.0416.105.0608.0346.0216.069.0416.105.0608.0347.0216.069.0416.105.0608.0346.0216.069.0416.1049.0608.0347.0216.0691.0416.1051.0608.0346.0216.069.042.105.0612.0346.0212.069.0417.105.0608.0346.0217.0689.0417.1049.0608.0346.0217.069.0417.1051.0608.0346.0217.0689.0417.105.0608.0346.0217.0689.0417.105.0608.0345.0217.0689.0417.1049.0608.0346.0217.069.0417.105.0613.0346.0212.069.0416.105.0608.0346.0216.069.0416.105.0608.0346.0216.069.0416.1049.0608.0346.0216.0691.0416.1051.0608.0347.0216.069.0416.105.0608.0346.0216.0689.0416.1049.0608.0347.0216.069.0416.105.0608.0347.0217.069.0416.1049.0608.0347.0217.0691.0416.1052.0612.0346.0213.0689.0417.1049.0608.0346.0217.069.0417.105.0608.0346.0217.0689.0417.1049.0608.0346.0217.069.0417.1051.0608.0346.0217.0689.0417.105.0609.0346.0216.0689.0416.105.0608.0346.0216.0689.0416.1049.0608.0346.0216.069.042.1051.0612.0347.0216.069.0416.105.0608.0346.0216.0689.0416.1049.0608.0347.0217.069.0416.105.0608a1.7294,1.7294,0,0,0,1.801.0375L72.32,42.4115a1.751,1.751,0,0,0,.8758-1.5168V10.9489a7.9191,7.9191,0,0,0-4.0045-6.8915c-.035-.02-.07-.0408-.105-.0608s-.0695-.0408-.1047-.0608-.07-.0412-.1052-.0608-.07-.0412-.105-.0608-.07-.0412-.105-.0612-.07-.0408-.105-.0608-.07-.0408-.1048-.0608-.07-.0408-.1052-.0608-.07-.0408-.105-.0608-.07-.0408-.105-.0608-.07-.0408-.1047-.0608-.07-.0413-.1053-.0608-.07-.0413-.105-.0608-.07-.0413-.105-.0613-.07-.0408-.1047-.06-.07-.0412-.1052-.0612-.07-.0408-.105-.0608-.07-.0412-.105-.0608-.07-.0412-.105-.0608-.07-.0412-.1048-.0608-.07-.0412-.1052-.0612-.07-.0408-.105-.0608-.07-.0408-.105-.0608-.07-.0408-.1047-.0608-.07-.0409-.1053-.0608-.07-.0409-.105-.0609-.07-.0412-.105-.0608-.0695-.0412-.1047-.0608-.07-.0412-.1052-.0608-.07-.0412-.105-.0612-.07-.0408-.105-.0608-.07-.0408-.1048-.0608-.07-.0408-.1052-.0608-.07-.0412-.105-.0608-.07-.0412-.105-.0608-.07-.0412-.105-.0608-.0695-.0413-.1047-.0608-.07-.0413-.1053-.0612-.07-.0409-.105-.0609-.07-.0408-.105-.0608-.07-.0408-.1047-.0608-.07-.0408-.1052-.0608-.07-.0412-.105-.0608-.07-.0412-.105-.0608-.0695-.0412-.1048-.0608-.07-.0412-.1052-.0612-.07-.0408-.105-.0608-.07-.0408-.105-.0608-.07-.0408-.105-.0608-.07-.0408-.1047-.0608A7.4062,7.4062,0,0,0,60.2424,0a7.61,7.61,0,0,0-3.74.9508c-.0041.0025-20.2017,11.6639-28.636,16.5333L6.5636,5.1848a1.3457,1.3457,0,0,0-1.4026.0313c-.03.0158-.0593.0325-.0884.0508-.03.0162-.06.0329-.0887.0512-.03.0163-.0595.0329-.0887.0512-.03.0163-.0594.0329-.0885.0509-.03.0162-.06.0329-.0888.0512-.03.0162-.0594.0329-.0885.0512-.03.0162-.06.0329-.0888.0512-.03.0159-.06.0325-.0887.0508-.03.0163-.0594.0329-.0885.0513-.03.0162-.06.0329-.0888.0512-.03.0158-.06.0329-.0886.0508-.03.0162-.0595.0329-.0886.0512-.03.0163-.06.0329-.0888.0513-.03.0158-.0594.0324-.0885.0508-.03.0162-.06.0329-.0888.0512-.03.0162-.06.0329-.0887.0512-.03.0163-.0593.0329-.0884.0508-.03.0163-.06.0329-.0888.0513-.03.0162-.0594.0329-.0885.0512-.03.0162-.06.0329-.0888.0512-.03.0158-.06.0329-.0887.0512-.03.0159-.0594.0325-.0885.0508-.03.0163-.06.0329-.0888.0513-.03.0162-.0595.0329-.0886.0512-.03.0158-.0595.0325-.0886.0508-.03.0163-.06.0329-.0888.0512-.03.0163-.0594.0329-.0885.0513-.03.0158-.06.0324-.0888.0508-.03.0162-.0595.0329-.0886.0512-.03.0162-.0595.0329-.0886.0512-.03.0159-.06.0325-.0887.0508-.03.0163-.0595.0329-.0886.0513-.03.0162-.06.0329-.0887.0512-.03.0158-.0595.0329-.0887.0512-.03.0158-.0594.0325-.0885.0508-.03.0163-.06.0329-.0888.0513-.03.0162-.0594.0329-.0885.0508-.03.0162-.06.0329-.0888.0512-.03.0162-.06.0329-.0886.0512-.03.0163-.0595.0329-.0886.0512-.03.0159-.06.0325-.0888.0513-.03.0158-.0595.0325-.0886.0508-.03.0162-.0595.0329-.0886.0512-.03.0162-.06.0329-.0887.0512-.03.0159-.0595.0325-.0886.0508-.03.0163-.06.0329-.0887.0513-.03.0162-.06.0329-.0887.0512-.03.0158-.0595.0325-.0886.0508-.0305.0162-.0595.0329-.0887.0512-.03.0163-.0594.0329-.0885.0513A1.3439,1.3439,0,0,0,0,8.97V24.6638a1.3613,1.3613,0,0,0,.6808,1.1791L22.0629,38.1881a1.3409,1.3409,0,0,0,1.2925.0291v5.5587L6.5635,34.0816a1.344,1.344,0,0,0-1.4064.0337c-.03.0163-.0593.0338-.0885.0525-.0306.0163-.0594.0338-.0887.0525-.0306.0162-.0594.0337-.0887.0525-.0306.0162-.0593.0337-.0886.0525-.0306.0162-.0594.0337-.0887.0524-.0306.0163-.0594.0338-.0887.0525-.0306.0162-.0593.0337-.0886.0521-.0306.0166-.0594.0341-.0886.0524-.0306.0167-.0594.0342-.0887.0525-.0306.0163-.0594.0342-.0887.0525-.0306.0166-.0593.0341-.0886.0525-.0306.0162-.0594.0341-.0887.0524-.03.0163-.0594.0338-.0886.0525-.0306.0163-.0595.0338-.0888.0525-.03.0162-.0593.0341-.0885.0525-.0306.0162-.0594.0337-.0887.0524-.0306.0163-.0594.0338-.0887.0525-.0306.0163-.0593.0338-.0886.0525-.0306.0162-.0594.0337-.0886.0525-.0306.0162-.0594.0337-.0887.052-.0306.0163-.0594.0342-.0887.0525-.0306.0163-.0593.0342-.0886.0525-.0306.0162-.0594.0341-.0886.0525-.0306.0162-.0594.0337-.0887.0524-.0306.0163-.0594.0338-.0888.0525-.03.0163-.0593.0337-.0885.0525-.0306.0162-.0594.0337-.0887.0525-.03.0162-.0594.0337-.0886.052-.0306.0167-.0595.0342-.0888.0529-.03.0163-.0593.0338-.0885.0521-.0306.0166-.0594.0341-.0887.0525-.0306.0166-.0594.0341-.0887.0524-.0306.0163-.0593.0342-.0886.0525-.0306.0162-.0594.0342-.0886.0525-.0306.0162-.0594.0337-.0887.0525-.0306.0162-.0594.0337-.0887.0524-.0306.0163-.0593.0338-.0886.0525-.0306.0163-.0594.0337-.0886.0525-.0306.0162-.0594.0337-.0887.0525-.0306.0162-.0595.0337-.0888.0524-.03.0163-.0593.0338-.0885.0525-.0306.0163-.0594.0337-.0887.0521-.03.0162-.0594.0341-.0886.0524-.0306.0163-.0595.0342-.0888.0525-.0306.0163-.0593.0342-.0885.0525-.0306.0162-.0594.0337-.0888.0525-.0306.0162-.0594.0341-.0887.0525-.03.0162-.0592.0337-.0885.0524-.0306.0163-.0594.0338-.0886.0525-.0306.0162-.0594.0337-.0887.0521A1.3451,1.3451,0,0,0,0,37.9348V53.6285a1.3614,1.3614,0,0,0,.6807,1.179L23.3548,67.8982v.7651l.0006.0091v4.1248L6.5636,63.1029a1.3448,1.3448,0,0,0-1.4032.0312c-.03.0163-.0594.0334-.0886.0513-.03.0162-.0595.0333-.0887.0516-.03.0163-.0594.0329-.0885.0512-.03.0163-.0595.0329-.0887.0513-.03.0162-.0595.0329-.0886.0512-.03.0162-.0595.0333-.0887.0516-.03.0159-.0595.0329-.0886.0513-.03.0162-.0595.0329-.0887.0512-.03.0162-.0595.0333-.0887.0516-.03.0159-.0595.0329-.0887.0513-.03.0162-.0594.0329-.0886.0512-.03.0162-.0595.0329-.0887.0512-.03.0163-.0594.0333-.0886.0517-.03.0158-.0595.0329-.0887.0512-.03.0162-.0594.0329-.0887.0512-.03.0162-.0595.0329-.0888.0517-.03.0158-.0593.0329-.0884.0512-.03.0158-.0595.0329-.0886.0512-.03.0162-.0595.0329-.0887.0512-.03.0163-.06.0329-.0886.0513-.03.0162-.06.0333-.0887.0516-.03.0158-.0595.0329-.0886.0512-.03.0163-.06.0329-.0888.0513-.03.0162-.0594.0329-.0886.0512-.03.0162-.0595.0333-.0887.0516-.03.0158-.0594.0329-.0886.0512-.03.0163-.06.033-.0887.0513-.03.0162-.0594.0333-.0886.0516-.0306.0158-.0595.0329-.0888.0512-.03.0163-.0594.0329-.0885.0513-.03.0162-.06.0329-.0888.0512-.03.0162-.0594.0329-.0885.0512-.03.0163-.0595.0333-.0886.0517-.03.0158-.0595.0329-.0887.0512-.03.0162-.0595.0329-.0886.0512-.03.0163-.06.0333-.0887.0517-.0305.0158-.06.0329-.0887.0512-.03.0162-.06.0329-.0887.0512-.03.0163-.0594.0329-.0886.0512-.03.0163-.06.0334-.0887.0517-.03.0158-.0594.0329-.0886.0512-.03.0163-.06.0329-.0887.0512-.03.0163-.06.0329-.0888.0513-.03.0162-.0593.0333-.0885.0516-.03.0158-.06.0329-.0886.0512-.03.0163-.06.0329-.0887.0513-.03.0162-.06.0329-.0887.0516-.03.0158-.0594.0329-.0885.0512-.03.0159-.0595.0329-.0887.0513-.03.0162-.0595.0329-.0887.0512A1.3448,1.3448,0,0,0,0,66.9V82.5936a1.3618,1.3618,0,0,0,.6808,1.179L28.7094,99.9548v0l.0061.0037h0l.9842.5685.0009,0a9.8841,9.8841,0,0,0,12.6108-3.32h.0009q.26-.3849.4843-.7955c.0654-.12.1232-.231.1838-.3538.0064.0012,1.0161.6165,1.0161.6165a24.72,24.72,0,0,0,10.9974-.3818,24.19,24.19,0,0,0,2.9146-.9771A24.4845,24.4845,0,0,0,73.1354,74.3107c.04-.57.06-10.5556.06-10.5556A1.7185,1.7185,0,0,0,72.28,62.23c-.0287-.0175-.057-.0342-.0866-.05-.0287-.0179-.0572-.0342-.0869-.05s-.0569-.0342-.0864-.05c-.0287-.0179-.057-.0341-.0866-.05s-.057-.0341-.0867-.05c-.0287-.0179-.0571-.0341-.0868-.05s-.0569-.0341-.0865-.05c-.0286-.0179-.057-.0342-.0866-.05s-.057-.0342-.0867-.05c-.0287-.0179-.0571-.0342-.0867-.05s-.057-.0341-.0865-.05c-.0287-.0179-.057-.0341-.0866-.05s-.0571-.0341-.0868-.05c-.0287-.0175-.0571-.0342-.0867-.05s-.0569-.0338-.0865-.05-.057-.0342-.0866-.05c-.0287-.0179-.0571-.0346-.0867-.05-.0287-.0175-.057-.0341-.0866-.05-.0287-.0179-.0571-.0345-.0868-.05-.0287-.0179-.057-.0341-.0866-.05-.0286-.0179-.0569-.0342-.0865-.05s-.0571-.0342-.0867-.05c-.0287-.0179-.0571-.0342-.0868-.05-.0286-.0179-.0569-.0341-.0865-.05-.0287-.0179-.057-.0341-.0866-.05s-.057-.0341-.0866-.05c-.0288-.018-.0572-.0342-.0869-.05s-.0569-.0342-.0864-.05c-.0287-.0175-.057-.0342-.0867-.05s-.057-.0342-.0866-.05c-.0287-.0175-.0572-.0341-.0869-.05s-.0569-.0337-.0864-.05-.057-.0341-.0866-.05c-.0287-.0179-.057-.0346-.0867-.05-.0286-.0175-.0571-.0342-.0867-.05-.0287-.0179-.057-.0346-.0867-.05-.0286-.0179-.0569-.0341-.0865-.05-.0287-.0179-.057-.0341-.0867-.05s-.057-.0341-.0866-.05c-.0287-.018-.0571-.0342-.0868-.05s-.0569-.0342-.0864-.05c-.0287-.0179-.0571-.0342-.0868-.05s-.0569-.0342-.0866-.05c-.0286-.0179-.0571-.0341-.0867-.05s-.057-.0341-.0866-.05c-.0286-.0179-.057-.0341-.0866-.05s-.057-.0341-.0866-.05c-.0287-.0175-.0571-.0342-.0868-.05s-.0569-.0342-.0866-.05c-.0286-.0175-.0569-.0342-.0865-.05a1.7178,1.7178,0,0,0-1.78-.0308L54.3594,66.5084a1.7389,1.7389,0,0,0-.8694,1.506v6.2372a21.0943,21.0943,0,0,1-7.9933,16.55c-.4862.3865-.9932.7467-1.5128,1.09.0014-.0683.0128-.1337.0128-.2024l.0675-58.6111.0012-1.0229,0-.0021c.4769-3.8469,3.379-6.8052,6.8872-6.8052.0532,0,.105.0059.1579.0071a8.6021,8.6021,0,0,1,1.4435,4.8128V44.5939A1.73,1.73,0,0,0,53.4855,46.1344Z" style="fill: url(#a6c3b07f-be75-4d43-80e5-134d8a513ea1)"/>
        <g>
          <path d="M24.1052,21.3154V37.0088a1.3615,1.3615,0,0,1-2.0423,1.1791L.6808,25.8429A1.3615,1.3615,0,0,1,0,24.6638V8.97A1.3615,1.3615,0,0,1,2.0422,7.7912L23.4244,20.1363A1.3615,1.3615,0,0,1,24.1052,21.3154Z" style="fill: url(#b0e15640-1681-40fa-94dc-87a9ffaa98b0)"/>
          <path d="M70.5869,62.249a1.739,1.739,0,0,1,2.6085,1.506s-.02,9.9861-.06,10.5556A24.5644,24.5644,0,0,1,57.9087,95.3151a24.1912,24.1912,0,0,1-2.9146.9773,24.7292,24.7292,0,0,1-10.9974.3817A21.1086,21.1086,0,0,0,57.9087,76.81V70.5732a1.739,1.739,0,0,1,.8695-1.506Z" style="fill: url(#e0027c72-6352-43cc-b636-a80d97dab012)"/>
          <polygon points="28.714 52.155 28.71 52.152 28.71 52.157 28.714 52.155" style="fill: url(#e846bc58-b5cf-42b2-9f84-83a111974372)"/>
          <polygon points="28.71 78.759 28.71 71.776 28.709 71.767 28.709 78.768 28.71 78.759" style="fill: url(#adb5fe15-60ae-437a-9c06-f38d5f494499)"/>
          <path d="M65.597,3.1039a7.6068,7.6068,0,0,0-3.74.951C61.8519,4.0575,29.58,22.6907,29.58,22.6907a1.7389,1.7389,0,0,0-.87,1.506V52.1522l.0044.0027-.0044.0026v-.0053l-.0006,0V71.7672l.0006.0088v6.9829l-.0006.0086v21.18a.0126.0126,0,0,0,.0063.0109l.9843.5682.0009.0005a9.8837,9.8837,0,0,0,12.6107-3.32h.0009c.173-.2565.3348-.5226.4843-.7956a9.8367,9.8367,0,0,0,1.2-4.7231l.0675-58.6108.0012-1.0229,0-.0019c.4769-3.8471,3.3791-6.8055,6.8872-6.8055A6.3806,6.3806,0,0,1,55.0889,26.8H55.09a8.3139,8.3139,0,0,1,2.8189,6.3708V47.6977a1.7515,1.7515,0,0,0,2.6273,1.5169L72.32,42.4116a1.7516,1.7516,0,0,0,.8758-1.5169V10.9487A7.7748,7.7748,0,0,0,65.597,3.1039Z" style="fill: url(#e9e01791-b19f-43be-99b5-b1b36df6e30a)"/>
          <path d="M0,37.9349V53.6286a1.3613,1.3613,0,0,0,.6807,1.179L28.0292,70.5969a1.361,1.361,0,0,1,.68,1.17V52.1519L2.0421,36.7558A1.3614,1.3614,0,0,0,0,37.9349Z" style="fill: url(#a51ba690-791d-458b-8f3b-caa112d17a85)"/>
          <path d="M26.6678,79.938,2.0422,65.7209A1.3614,1.3614,0,0,0,0,66.9V82.5934a1.3616,1.3616,0,0,0,.6808,1.1791L28.7094,99.9547V78.7675A1.3612,1.3612,0,0,1,26.6678,79.938Z" style="fill: url(#ab19757c-2c01-41cb-b441-85ed3b58f1a1)"/>
        </g>
        <polygon points="28.709 24.267 28.709 51.476 43.997 51.476 43.997 32.712 28.709 24.267" style="mix-blend-mode: multiply;fill: url(#fb0c70d0-404b-410d-9418-9784ce30d38c)"/>
        <path d="M26.6678,79.938,2.0422,65.7209A1.3614,1.3614,0,0,0,0,66.9V82.5934a1.3616,1.3616,0,0,0,.6808,1.1791L28.7094,99.9547V78.7675A1.3612,1.3612,0,0,1,26.6678,79.938Z" style="mix-blend-mode: multiply;fill: url(#b43996e3-a576-4282-8199-dd99ef5dd9c7)"/>
        <path d="M0,37.9349V53.6286a1.3613,1.3613,0,0,0,.6807,1.179L28.0292,70.5969a1.361,1.361,0,0,1,.68,1.17V52.1519L2.0421,36.7558A1.3614,1.3614,0,0,0,0,37.9349Z" style="mix-blend-mode: multiply;fill: url(#a8e4cf0e-15be-4a38-bfdf-97157446d1a7)"/>
      </g>
    </g>
  </g>
</svg>
