<svg xmlns="http://www.w3.org/2000/svg" xmlns:xlink="http://www.w3.org/1999/xlink" viewBox="0 0 352.5262 101.5676">
  <defs>
    <linearGradient id="b338a5a5-655f-41b0-80ad-dd8df9fdf41a" x1="27.1502" y1="84.574" x2="47.6208" y2="-7.5438" gradientUnits="userSpaceOnUse">
      <stop offset="0" stop-color="#fed061"/>
      <stop offset="0.4944" stop-color="#812082"/>
      <stop offset="1" stop-color="#50368c"/>
    </linearGradient>
    <linearGradient id="a9b64ca3-3e0f-46c6-b585-77b79b286477" x1="29.6317" y1="-14.197" x2="-14.7213" y2="79.6267" xlink:href="#b338a5a5-655f-41b0-80ad-dd8df9fdf41a"/>
    <linearGradient id="eb0235aa-49b5-4f16-8185-775974623f4e" x1="92.5569" y1="15.5495" x2="48.2039" y2="109.3732" xlink:href="#b338a5a5-655f-41b0-80ad-dd8df9fdf41a"/>
    <linearGradient id="ea211e41-28db-4a9b-81b2-0c7b5b2a8324" x1="36.8705" y1="34.8957" x2="20.5542" y2="69.4109" xlink:href="#b338a5a5-655f-41b0-80ad-dd8df9fdf41a"/>
    <linearGradient id="ed7a6612-6c39-448a-ad94-322e8c8a772d" x1="63.4453" y1="1.7876" x2="19.0923" y2="95.6113" xlink:href="#b338a5a5-655f-41b0-80ad-dd8df9fdf41a"/>
    <linearGradient id="fde86902-b357-43ad-a7c1-a3c9cd2bf3dc" x1="65.1194" y1="2.579" x2="20.7664" y2="96.4027" xlink:href="#b338a5a5-655f-41b0-80ad-dd8df9fdf41a"/>
    <linearGradient id="bfac8637-749e-4cf6-a1c0-1e471c70e5fb" x1="43.764" y1="-7.5162" x2="-0.589" y2="86.3075" xlink:href="#b338a5a5-655f-41b0-80ad-dd8df9fdf41a"/>
    <linearGradient id="e02071ff-cec8-4390-8f62-93d28e81e5d4" x1="54.8054" y1="-2.2967" x2="10.4524" y2="91.527" xlink:href="#b338a5a5-655f-41b0-80ad-dd8df9fdf41a"/>
    <linearGradient id="e733584e-b1ae-4619-900c-60994c1050da" x1="36.3531" y1="62.7797" x2="36.3531" y2="17.148" gradientUnits="userSpaceOnUse">
      <stop offset="0.4001" stop-color="#944493" stop-opacity="0"/>
      <stop offset="1" stop-color="#301350"/>
    </linearGradient>
    <linearGradient id="bb9971f4-a8df-4e49-bd6a-5faa7bed30c8" x1="9.1214" y1="83.4305" x2="28.9822" y2="81.1155" xlink:href="#e733584e-b1ae-4619-900c-60994c1050da"/>
    <linearGradient id="ba18a3d1-fbdf-4eff-886e-0324dc54dd20" x1="7.7615" y1="44.4636" x2="25.6727" y2="67.9797" xlink:href="#e733584e-b1ae-4619-900c-60994c1050da"/>
    <linearGradient id="f3e2ae78-191d-437b-a60a-0f58506c8fbb" x1="209.6885" y1="-182.7925" x2="80.865" y2="150.0799" xlink:href="#b338a5a5-655f-41b0-80ad-dd8df9fdf41a"/>
    <linearGradient id="a6c8faa6-22b2-4977-b0d8-cf62fa9809d8" x1="243.1385" y1="-169.8472" x2="114.315" y2="163.0252" xlink:href="#b338a5a5-655f-41b0-80ad-dd8df9fdf41a"/>
    <linearGradient id="bc26b845-19bf-4b1c-b8ce-eb5ed83fd65c" x1="287.9178" y1="-152.5173" x2="159.0943" y2="180.3551" xlink:href="#b338a5a5-655f-41b0-80ad-dd8df9fdf41a"/>
    <linearGradient id="bb0928ac-bdd4-4a75-99b9-aa555f454b33" x1="337.5277" y1="-133.318" x2="208.7042" y2="199.5544" xlink:href="#b338a5a5-655f-41b0-80ad-dd8df9fdf41a"/>
    <linearGradient id="b2794c4b-e481-45dd-8124-bb57e06d62ea" x1="394.7957" y1="-111.155" x2="265.9722" y2="221.7175" xlink:href="#b338a5a5-655f-41b0-80ad-dd8df9fdf41a"/>
    <linearGradient id="f99c7b39-3840-4ff1-8ea5-2fb51d2c5d0c" x1="331.0519" y1="46.2091" x2="339.9622" y2="46.2091" gradientUnits="userSpaceOnUse">
      <stop offset="0" stop-color="#944493" stop-opacity="0"/>
      <stop offset="1" stop-color="#301350"/>
    </linearGradient>
    <clipPath id="abc37532-99a0-4e98-b845-13163931eada">
      <path d="M142.12,6.6615c1.3843,1.16,1.5184,2.5444.3568,4.1969l-3.6618,5.1373c-.9825,1.5184-2.3675,1.7853-4.1984.8035-.2233-.1342-2.1883-1.4742-2.635-1.6968a30.53,30.53,0,0,0-2.9925-1.564,17.2613,17.2613,0,0,0-5.3593-1.116,8.9764,8.9764,0,0,0-6.2975,2.1434,6.8137,6.8137,0,0,0-2.3668,5.1816c0,4.5109,3.9743,7.3236,12.5052,10.1378,2.01.6692,3.4392,1.1616,4.2876,1.4284.8041.2683,2.1883.8049,4.1084,1.6083a37.5465,37.5465,0,0,1,4.2883,2.1434c.9375.6265,2.1434,1.5184,3.5276,2.6358,2.8142,2.2775,3.8409,4.4666,4.9576,7.726a17.3677,17.3677,0,0,1,.8041,5.4042,19.4587,19.4587,0,0,1-6.431,15.0967c-4.3325,3.8844-10.4959,5.8494-18.5351,5.8494q-15.4752,0-25.19-10.54c-.9825-1.2943-.8483-2.59.4025-3.93l4.7335-5.0917c1.34-1.3842,2.68-1.34,4.02.18q6.23,6.5652,14.2026,6.5644a17.57,17.57,0,0,0,8.8876-2.0092,6.7019,6.7019,0,0,0,.3125-11.5234c-2.0991-1.4742-5.5825-2.9469-10.406-4.4652-2.1883-.7606-4.0642-1.43-5.5833-2.055a38.0817,38.0817,0,0,1-5.3592-2.7242,20.0865,20.0865,0,0,1-4.9576-3.8416,18.8035,18.8035,0,0,1-4.6-12.4153,18.0429,18.0429,0,0,1,6.2525-14.2476C111.3481,2.0607,116.7965.23,123.63.23A29.6555,29.6555,0,0,1,142.12,6.6615Z" style="fill: none"/>
    </clipPath>
    <linearGradient id="ba9c293c-4fb3-40fb-b610-8ded40074145" x1="114.3061" y1="54.7569" x2="114.3061" y2="3.483" xlink:href="#f99c7b39-3840-4ff1-8ea5-2fb51d2c5d0c"/>
    <clipPath id="a6cfd097-3840-47f8-a8f1-2cb4c865d331">
      <path d="M297.8755,27.5177c2.5458,3.0367,3.7959,7.101,3.7959,12.1484V67.8474a2.4611,2.4611,0,0,1-2.5458,2.6357h-7.5027c-1.6525,0-2.4567-.8491-2.4567-2.5458l-.0892-24.6979c0-5.985-2.2782-8.9775-6.8783-8.9775-5.1359,0-8.1285,4.645-8.1285,12.1927V67.7589a2.1588,2.1588,0,0,1-2.4559,2.4559h-7.5926A2.4528,2.4528,0,0,1,261.52,67.669V42.9711q0-8.9775-7.2351-8.9775c-4.8684,0-8.3068,4.0642-8.3068,10.8084V67.669c0,1.6967-.8933,2.5458-2.635,2.5458h-7.146c-1.7417,0-2.635-.8491-2.635-2.5458V26.9369a2.3409,2.3409,0,0,1,2.635-2.6343h7.146a2.3409,2.3409,0,0,1,2.635,2.6343v4.3325q4.4888-8.3739,13.5326-8.441c6.0293,0,10.2719,2.456,12.7286,7.325a16.1439,16.1439,0,0,1,13.89-7.1466C291.4438,23.0068,295.33,24.5252,297.8755,27.5177Z" style="fill: none"/>
    </clipPath>
    <linearGradient id="eec15726-23fc-4554-bbf6-92f096338f42" x1="249.2298" y1="34.0941" x2="246.3342" y2="34.0941" xlink:href="#f99c7b39-3840-4ff1-8ea5-2fb51d2c5d0c"/>
    <clipPath id="f0851a35-a537-40e7-b109-40392771d366">
      <path d="M222.2729,70.8841c4.9575,3.0824,7.4584,7.4592,7.4584,13.086a14.53,14.53,0,0,1-7.19,12.9533c-4.8234,3.0367-11.7017,4.5551-20.5893,4.5551-8.8434,0-15.6761-1.4741-20.5445-4.4224a14.0131,14.0131,0,0,1-7.28-12.6836c0-7.5476,4.8234-13.1744,13.3542-16.0785a6.5632,6.5632,0,0,1-2.0991-5.046c0-2.68,1.3842-4.7349,4.1084-6.1192-5.8509-3.3949-9.6018-9.0217-9.6018-15.6318,0-5.9393,1.965-10.54,5.85-13.8452,3.8859-3.2608,9.2009-4.9133,15.9444-4.9133H222.72c2.01,0,3.0368,1.0275,2.9925,3.0382l-.0892,4.2868a2.4068,2.4068,0,0,1-2.9925,2.6358l-6.6992-1.0717a12.926,12.926,0,0,1,8.2176,11.7,14.6352,14.6352,0,0,1-6.1634,12.4167c-4.1092,3.081-9.4684,4.5994-16.0335,4.5994-4.1534,0-6.1185.7149-6.1185,2.904,0,1.965,2.0542,2.9468,6.1185,2.9468C210.4819,66.1948,217.2711,67.7589,222.2729,70.8841ZM202.041,91.6076c4.6892,0,8.3517-.6693,11.0317-2.0092,2.635-1.34,3.975-3.3051,3.975-5.9408,0-5.2244-5.7616-7.86-15.0067-7.86a25.0442,25.0442,0,0,0-10.7635,2.0093c-2.8134,1.34-4.2426,3.305-4.2426,5.8509,0,2.6357,1.3393,4.6008,3.9743,5.9408S197.3517,91.6076,202.041,91.6076Zm0-58.3289a11.3042,11.3042,0,0,0-7.28,2.1448,7.3123,7.3123,0,0,0-2.6793,6.0735,7.55,7.55,0,0,0,2.6793,6.1634,12.9091,12.9091,0,0,0,14.5152,0,7.6507,7.6507,0,0,0,2.635-6.1634,7.4076,7.4076,0,0,0-2.635-6.0735A11.2533,11.2533,0,0,0,202.041,33.2787Z" style="fill: none"/>
    </clipPath>
    <linearGradient id="a2e31f5c-c21a-4cb9-97f6-bc9a58b5f723" x1="194.6455" y1="68.1865" x2="194.6455" y2="52.8273" xlink:href="#f99c7b39-3840-4ff1-8ea5-2fb51d2c5d0c"/>
  </defs>
  <g style="isolation: isolate">
    <g id="a0da4ecd-8565-4fe6-a5dd-d2c9a87ad33e" data-name="Layer 2">
      <g>
        <g>
          <path d="M53.4855,46.1344c.0346.0217.0689.0417.105.0608.0346.0217.0689.0417.105.0608.0345.0217.0689.0417.1049.0608.0346.0217.069.0417.105.0608.0346.0217.069.0417.105.0609.0347.0216.069.0416.105.0608.0347.0216.069.042.105.0612.0346.0212.069.0412.1049.0608.0347.0216.0691.0416.1051.0608.0346.0216.069.0416.105.0608.0346.0217.069.0416.105.0608.0346.0217.0689.0417.1049.0608.0346.0217.069.0417.1051.0608.0346.0217.0689.0421.105.0612.0346.0213.0689.0417.105.0608.0345.0217.0689.0417.1049.0608.0346.0217.069.0417.105.0609.0346.0216.069.0416.105.0608.0346.0216.069.0416.105.0608.0347.0216.069.0416.105.0608.0346.0216.069.0416.1049.0608.0347.0216.0691.0416.1051.0608.0346.0216.069.042.105.0612.0346.0212.069.0417.105.0608.0346.0217.0689.0417.1049.0608.0346.0217.069.0417.1051.0608.0346.0217.0689.0417.105.0608.0346.0217.0689.0417.105.0608.0345.0217.0689.0417.1049.0608.0346.0217.069.0417.105.0613.0346.0212.069.0416.105.0608.0346.0216.069.0416.105.0608.0346.0216.069.0416.1049.0608.0346.0216.0691.0416.1051.0608.0347.0216.069.0416.105.0608.0346.0216.0689.0416.1049.0608.0347.0216.069.0416.105.0608.0347.0217.069.0416.1049.0608.0347.0217.0691.0416.1052.0612.0346.0213.0689.0417.1049.0608.0346.0217.069.0417.105.0608.0346.0217.0689.0417.1049.0608.0346.0217.069.0417.1051.0608.0346.0217.0689.0417.105.0609.0346.0216.0689.0416.105.0608.0346.0216.0689.0416.1049.0608.0346.0216.069.042.1051.0612.0347.0216.069.0416.105.0608.0346.0216.0689.0416.1049.0608.0347.0217.069.0416.105.0608a1.7294,1.7294,0,0,0,1.801.0375L72.32,42.4115a1.751,1.751,0,0,0,.8758-1.5168V10.9489a7.9191,7.9191,0,0,0-4.0045-6.8915c-.035-.02-.07-.0408-.105-.0608s-.0695-.0408-.1047-.0608-.07-.0412-.1052-.0608-.07-.0412-.105-.0608-.07-.0412-.105-.0612-.07-.0408-.105-.0608-.07-.0408-.1048-.0608-.07-.0408-.1052-.0608-.07-.0408-.105-.0608-.07-.0408-.105-.0608-.07-.0408-.1047-.0608-.07-.0413-.1053-.0608-.07-.0413-.105-.0608-.07-.0413-.105-.0613-.07-.0408-.1047-.06-.07-.0412-.1052-.0612-.07-.0408-.105-.0608-.07-.0412-.105-.0608-.07-.0412-.105-.0608-.07-.0412-.1048-.0608-.07-.0412-.1052-.0612-.07-.0408-.105-.0608-.07-.0408-.105-.0608-.07-.0408-.1047-.0608-.07-.0409-.1053-.0608-.07-.0409-.105-.0609-.07-.0412-.105-.0608-.0695-.0412-.1047-.0608-.07-.0412-.1052-.0608-.07-.0412-.105-.0612-.07-.0408-.105-.0608-.07-.0408-.1048-.0608-.07-.0408-.1052-.0608-.07-.0412-.105-.0608-.07-.0412-.105-.0608-.07-.0412-.105-.0608-.0695-.0413-.1047-.0608-.07-.0413-.1053-.0612-.07-.0409-.105-.0609-.07-.0408-.105-.0608-.07-.0408-.1047-.0608-.07-.0408-.1052-.0608-.07-.0412-.105-.0608-.07-.0412-.105-.0608-.0695-.0412-.1048-.0608-.07-.0412-.1052-.0612-.07-.0408-.105-.0608-.07-.0408-.105-.0608-.07-.0408-.105-.0608-.07-.0408-.1047-.0608A7.4062,7.4062,0,0,0,60.2424,0a7.61,7.61,0,0,0-3.74.9508c-.0041.0025-20.2017,11.6639-28.636,16.5333L6.5636,5.1848a1.3457,1.3457,0,0,0-1.4026.0313c-.03.0158-.0593.0325-.0884.0508-.03.0162-.06.0329-.0887.0512-.03.0163-.0595.0329-.0887.0512-.03.0163-.0594.0329-.0885.0509-.03.0162-.06.0329-.0888.0512-.03.0162-.0594.0329-.0885.0512-.03.0162-.06.0329-.0888.0512-.03.0159-.06.0325-.0887.0508-.03.0163-.0594.0329-.0885.0513-.03.0162-.06.0329-.0888.0512-.03.0158-.06.0329-.0886.0508-.03.0162-.0595.0329-.0886.0512-.03.0163-.06.0329-.0888.0513-.03.0158-.0594.0324-.0885.0508-.03.0162-.06.0329-.0888.0512-.03.0162-.06.0329-.0887.0512-.03.0163-.0593.0329-.0884.0508-.03.0163-.06.0329-.0888.0513-.03.0162-.0594.0329-.0885.0512-.03.0162-.06.0329-.0888.0512-.03.0158-.06.0329-.0887.0512-.03.0159-.0594.0325-.0885.0508-.03.0163-.06.0329-.0888.0513-.03.0162-.0595.0329-.0886.0512-.03.0158-.0595.0325-.0886.0508-.03.0163-.06.0329-.0888.0512-.03.0163-.0594.0329-.0885.0513-.03.0158-.06.0324-.0888.0508-.03.0162-.0595.0329-.0886.0512-.03.0162-.0595.0329-.0886.0512-.03.0159-.06.0325-.0887.0508-.03.0163-.0595.0329-.0886.0513-.03.0162-.06.0329-.0887.0512-.03.0158-.0595.0329-.0887.0512-.03.0158-.0594.0325-.0885.0508-.03.0163-.06.0329-.0888.0513-.03.0162-.0594.0329-.0885.0508-.03.0162-.06.0329-.0888.0512-.03.0162-.06.0329-.0886.0512-.03.0163-.0595.0329-.0886.0512-.03.0159-.06.0325-.0888.0513-.03.0158-.0595.0325-.0886.0508-.03.0162-.0595.0329-.0886.0512-.03.0162-.06.0329-.0887.0512-.03.0159-.0595.0325-.0886.0508-.03.0163-.06.0329-.0887.0513-.03.0162-.06.0329-.0887.0512-.03.0158-.0595.0325-.0886.0508-.0305.0162-.0595.0329-.0887.0512-.03.0163-.0594.0329-.0885.0513A1.3439,1.3439,0,0,0,0,8.97V24.6638a1.3613,1.3613,0,0,0,.6808,1.1791L22.0629,38.1881a1.3409,1.3409,0,0,0,1.2925.0291v5.5587L6.5635,34.0816a1.344,1.344,0,0,0-1.4064.0337c-.03.0163-.0593.0338-.0885.0525-.0306.0163-.0594.0338-.0887.0525-.0306.0162-.0594.0337-.0887.0525-.0306.0162-.0593.0337-.0886.0525-.0306.0162-.0594.0337-.0887.0524-.0306.0163-.0594.0338-.0887.0525-.0306.0162-.0593.0337-.0886.0521-.0306.0166-.0594.0341-.0886.0524-.0306.0167-.0594.0342-.0887.0525-.0306.0163-.0594.0342-.0887.0525-.0306.0166-.0593.0341-.0886.0525-.0306.0162-.0594.0341-.0887.0524-.03.0163-.0594.0338-.0886.0525-.0306.0163-.0595.0338-.0888.0525-.03.0162-.0593.0341-.0885.0525-.0306.0162-.0594.0337-.0887.0524-.0306.0163-.0594.0338-.0887.0525-.0306.0163-.0593.0338-.0886.0525-.0306.0162-.0594.0337-.0886.0525-.0306.0162-.0594.0337-.0887.052-.0306.0163-.0594.0342-.0887.0525-.0306.0163-.0593.0342-.0886.0525-.0306.0162-.0594.0341-.0886.0525-.0306.0162-.0594.0337-.0887.0524-.0306.0163-.0594.0338-.0888.0525-.03.0163-.0593.0337-.0885.0525-.0306.0162-.0594.0337-.0887.0525-.03.0162-.0594.0337-.0886.052-.0306.0167-.0595.0342-.0888.0529-.03.0163-.0593.0338-.0885.0521-.0306.0166-.0594.0341-.0887.0525-.0306.0166-.0594.0341-.0887.0524-.0306.0163-.0593.0342-.0886.0525-.0306.0162-.0594.0342-.0886.0525-.0306.0162-.0594.0337-.0887.0525-.0306.0162-.0594.0337-.0887.0524-.0306.0163-.0593.0338-.0886.0525-.0306.0163-.0594.0337-.0886.0525-.0306.0162-.0594.0337-.0887.0525-.0306.0162-.0595.0337-.0888.0524-.03.0163-.0593.0338-.0885.0525-.0306.0163-.0594.0337-.0887.0521-.03.0162-.0594.0341-.0886.0524-.0306.0163-.0595.0342-.0888.0525-.0306.0163-.0593.0342-.0885.0525-.0306.0162-.0594.0337-.0888.0525-.0306.0162-.0594.0341-.0887.0525-.03.0162-.0592.0337-.0885.0524-.0306.0163-.0594.0338-.0886.0525-.0306.0162-.0594.0337-.0887.0521A1.3451,1.3451,0,0,0,0,37.9348V53.6285a1.3614,1.3614,0,0,0,.6807,1.179L23.3548,67.8982v.7651l.0006.0091v4.1248L6.5636,63.1029a1.3448,1.3448,0,0,0-1.4032.0312c-.03.0163-.0594.0334-.0886.0513-.03.0162-.0595.0333-.0887.0516-.03.0163-.0594.0329-.0885.0512-.03.0163-.0595.0329-.0887.0513-.03.0162-.0595.0329-.0886.0512-.03.0162-.0595.0333-.0887.0516-.03.0159-.0595.0329-.0886.0513-.03.0162-.0595.0329-.0887.0512-.03.0162-.0595.0333-.0887.0516-.03.0159-.0595.0329-.0887.0513-.03.0162-.0594.0329-.0886.0512-.03.0162-.0595.0329-.0887.0512-.03.0163-.0594.0333-.0886.0517-.03.0158-.0595.0329-.0887.0512-.03.0162-.0594.0329-.0887.0512-.03.0162-.0595.0329-.0888.0517-.03.0158-.0593.0329-.0884.0512-.03.0158-.0595.0329-.0886.0512-.03.0162-.0595.0329-.0887.0512-.03.0163-.06.0329-.0886.0513-.03.0162-.06.0333-.0887.0516-.03.0158-.0595.0329-.0886.0512-.03.0163-.06.0329-.0888.0513-.03.0162-.0594.0329-.0886.0512-.03.0162-.0595.0333-.0887.0516-.03.0158-.0594.0329-.0886.0512-.03.0163-.06.033-.0887.0513-.03.0162-.0594.0333-.0886.0516-.0306.0158-.0595.0329-.0888.0512-.03.0163-.0594.0329-.0885.0513-.03.0162-.06.0329-.0888.0512-.03.0162-.0594.0329-.0885.0512-.03.0163-.0595.0333-.0886.0517-.03.0158-.0595.0329-.0887.0512-.03.0162-.0595.0329-.0886.0512-.03.0163-.06.0333-.0887.0517-.0305.0158-.06.0329-.0887.0512-.03.0162-.06.0329-.0887.0512-.03.0163-.0594.0329-.0886.0512-.03.0163-.06.0334-.0887.0517-.03.0158-.0594.0329-.0886.0512-.03.0163-.06.0329-.0887.0512-.03.0163-.06.0329-.0888.0513-.03.0162-.0593.0333-.0885.0516-.03.0158-.06.0329-.0886.0512-.03.0163-.06.0329-.0887.0513-.03.0162-.06.0329-.0887.0516-.03.0158-.0594.0329-.0885.0512-.03.0159-.0595.0329-.0887.0513-.03.0162-.0595.0329-.0887.0512A1.3448,1.3448,0,0,0,0,66.9V82.5936a1.3618,1.3618,0,0,0,.6808,1.179L28.7094,99.9548v0l.0061.0037h0l.9842.5685.0009,0a9.8841,9.8841,0,0,0,12.6108-3.32h.0009q.26-.3849.4843-.7955c.0654-.12.1232-.231.1838-.3538.0064.0012,1.0161.6165,1.0161.6165a24.72,24.72,0,0,0,10.9974-.3818,24.19,24.19,0,0,0,2.9146-.9771A24.4845,24.4845,0,0,0,73.1354,74.3107c.04-.57.06-10.5556.06-10.5556A1.7185,1.7185,0,0,0,72.28,62.23c-.0287-.0175-.057-.0342-.0866-.05-.0287-.0179-.0572-.0342-.0869-.05s-.0569-.0342-.0864-.05c-.0287-.0179-.057-.0341-.0866-.05s-.057-.0341-.0867-.05c-.0287-.0179-.0571-.0341-.0868-.05s-.0569-.0341-.0865-.05c-.0286-.0179-.057-.0342-.0866-.05s-.057-.0342-.0867-.05c-.0287-.0179-.0571-.0342-.0867-.05s-.057-.0341-.0865-.05c-.0287-.0179-.057-.0341-.0866-.05s-.0571-.0341-.0868-.05c-.0287-.0175-.0571-.0342-.0867-.05s-.0569-.0338-.0865-.05-.057-.0342-.0866-.05c-.0287-.0179-.0571-.0346-.0867-.05-.0287-.0175-.057-.0341-.0866-.05-.0287-.0179-.0571-.0345-.0868-.05-.0287-.0179-.057-.0341-.0866-.05-.0286-.0179-.0569-.0342-.0865-.05s-.0571-.0342-.0867-.05c-.0287-.0179-.0571-.0342-.0868-.05-.0286-.0179-.0569-.0341-.0865-.05-.0287-.0179-.057-.0341-.0866-.05s-.057-.0341-.0866-.05c-.0288-.018-.0572-.0342-.0869-.05s-.0569-.0342-.0864-.05c-.0287-.0175-.057-.0342-.0867-.05s-.057-.0342-.0866-.05c-.0287-.0175-.0572-.0341-.0869-.05s-.0569-.0337-.0864-.05-.057-.0341-.0866-.05c-.0287-.0179-.057-.0346-.0867-.05-.0286-.0175-.0571-.0342-.0867-.05-.0287-.0179-.057-.0346-.0867-.05-.0286-.0179-.0569-.0341-.0865-.05-.0287-.0179-.057-.0341-.0867-.05s-.057-.0341-.0866-.05c-.0287-.018-.0571-.0342-.0868-.05s-.0569-.0342-.0864-.05c-.0287-.0179-.0571-.0342-.0868-.05s-.0569-.0342-.0866-.05c-.0286-.0179-.0571-.0341-.0867-.05s-.057-.0341-.0866-.05c-.0286-.0179-.057-.0341-.0866-.05s-.057-.0341-.0866-.05c-.0287-.0175-.0571-.0342-.0868-.05s-.0569-.0342-.0866-.05c-.0286-.0175-.0569-.0342-.0865-.05a1.7178,1.7178,0,0,0-1.78-.0308L54.3594,66.5084a1.7389,1.7389,0,0,0-.8694,1.506v6.2372a21.0943,21.0943,0,0,1-7.9933,16.55c-.4862.3865-.9932.7467-1.5128,1.09.0014-.0683.0128-.1337.0128-.2024l.0675-58.6111.0012-1.0229,0-.0021c.4769-3.8469,3.379-6.8052,6.8872-6.8052.0532,0,.105.0059.1579.0071a8.6021,8.6021,0,0,1,1.4435,4.8128V44.5939A1.73,1.73,0,0,0,53.4855,46.1344Z" style="fill: url(#b338a5a5-655f-41b0-80ad-dd8df9fdf41a)"/>
          <g>
            <path d="M24.1052,21.3154V37.0088a1.3615,1.3615,0,0,1-2.0423,1.1791L.6808,25.8429A1.3615,1.3615,0,0,1,0,24.6638V8.97A1.3615,1.3615,0,0,1,2.0422,7.7912L23.4244,20.1363A1.3615,1.3615,0,0,1,24.1052,21.3154Z" style="fill: url(#a9b64ca3-3e0f-46c6-b585-77b79b286477)"/>
            <path d="M70.5869,62.249a1.739,1.739,0,0,1,2.6085,1.506s-.02,9.9861-.06,10.5556A24.5644,24.5644,0,0,1,57.9087,95.3151a24.1912,24.1912,0,0,1-2.9146.9773,24.7292,24.7292,0,0,1-10.9974.3817A21.1086,21.1086,0,0,0,57.9087,76.81V70.5732a1.739,1.739,0,0,1,.8695-1.506Z" style="fill: url(#eb0235aa-49b5-4f16-8185-775974623f4e)"/>
            <polygon points="28.714 52.155 28.71 52.152 28.71 52.157 28.714 52.155" style="fill: url(#ea211e41-28db-4a9b-81b2-0c7b5b2a8324)"/>
            <polygon points="28.71 78.759 28.71 71.776 28.709 71.767 28.709 78.768 28.71 78.759" style="fill: url(#ed7a6612-6c39-448a-ad94-322e8c8a772d)"/>
            <path d="M65.597,3.1039a7.6068,7.6068,0,0,0-3.74.951C61.8519,4.0575,29.58,22.6907,29.58,22.6907a1.7389,1.7389,0,0,0-.87,1.506V52.1522l.0044.0027-.0044.0026v-.0053l-.0006,0V71.7672l.0006.0088v6.9829l-.0006.0086v21.18a.0126.0126,0,0,0,.0063.0109l.9843.5682.0009.0005a9.8837,9.8837,0,0,0,12.6107-3.32h.0009c.173-.2565.3348-.5226.4843-.7956a9.8367,9.8367,0,0,0,1.2-4.7231l.0675-58.6108.0012-1.0229,0-.0019c.4769-3.8471,3.3791-6.8055,6.8872-6.8055A6.3806,6.3806,0,0,1,55.0889,26.8H55.09a8.3139,8.3139,0,0,1,2.8189,6.3708V47.6977a1.7515,1.7515,0,0,0,2.6273,1.5169L72.32,42.4116a1.7516,1.7516,0,0,0,.8758-1.5169V10.9487A7.7748,7.7748,0,0,0,65.597,3.1039Z" style="fill: url(#fde86902-b357-43ad-a7c1-a3c9cd2bf3dc)"/>
            <path d="M0,37.9349V53.6286a1.3613,1.3613,0,0,0,.6807,1.179L28.0292,70.5969a1.361,1.361,0,0,1,.68,1.17V52.1519L2.0421,36.7558A1.3614,1.3614,0,0,0,0,37.9349Z" style="fill: url(#bfac8637-749e-4cf6-a1c0-1e471c70e5fb)"/>
            <path d="M26.6678,79.938,2.0422,65.7209A1.3614,1.3614,0,0,0,0,66.9V82.5934a1.3616,1.3616,0,0,0,.6808,1.1791L28.7094,99.9547V78.7675A1.3612,1.3612,0,0,1,26.6678,79.938Z" style="fill: url(#e02071ff-cec8-4390-8f62-93d28e81e5d4)"/>
          </g>
          <polygon points="28.709 24.267 28.709 51.476 43.997 51.476 43.997 32.712 28.709 24.267" style="mix-blend-mode: multiply;fill: url(#e733584e-b1ae-4619-900c-60994c1050da)"/>
          <path d="M26.6678,79.938,2.0422,65.7209A1.3614,1.3614,0,0,0,0,66.9V82.5934a1.3616,1.3616,0,0,0,.6808,1.1791L28.7094,99.9547V78.7675A1.3612,1.3612,0,0,1,26.6678,79.938Z" style="mix-blend-mode: multiply;fill: url(#bb9971f4-a8df-4e49-bd6a-5faa7bed30c8)"/>
          <path d="M0,37.9349V53.6286a1.3613,1.3613,0,0,0,.6807,1.179L28.0292,70.5969a1.361,1.361,0,0,1,.68,1.17V52.1519L2.0421,36.7558A1.3614,1.3614,0,0,0,0,37.9349Z" style="mix-blend-mode: multiply;fill: url(#ba18a3d1-fbdf-4eff-886e-0324dc54dd20)"/>
        </g>
        <path d="M142.12,6.6615c1.3843,1.16,1.5184,2.5444.3568,4.1969l-3.6618,5.1373c-.9825,1.5184-2.3675,1.7853-4.1984.8035-.2233-.1342-2.1883-1.4742-2.635-1.6968a30.53,30.53,0,0,0-2.9925-1.564,17.2613,17.2613,0,0,0-5.3593-1.116,8.9764,8.9764,0,0,0-6.2975,2.1434,6.8137,6.8137,0,0,0-2.3668,5.1816c0,4.5109,3.9743,7.3236,12.5052,10.1378,2.01.6692,3.4392,1.1616,4.2876,1.4284.8041.2683,2.1883.8049,4.1084,1.6083a37.5465,37.5465,0,0,1,4.2883,2.1434c.9375.6265,2.1434,1.5184,3.5276,2.6358,2.8142,2.2775,3.8409,4.4666,4.9576,7.726a17.3677,17.3677,0,0,1,.8041,5.4042,19.4587,19.4587,0,0,1-6.431,15.0967c-4.3325,3.8844-10.4959,5.8494-18.5351,5.8494q-15.4752,0-25.19-10.54c-.9825-1.2943-.8483-2.59.4025-3.93l4.7335-5.0917c1.34-1.3842,2.68-1.34,4.02.18q6.23,6.5652,14.2026,6.5644a17.57,17.57,0,0,0,8.8876-2.0092,6.7019,6.7019,0,0,0,.3125-11.5234c-2.0991-1.4742-5.5825-2.9469-10.406-4.4652-2.1883-.7606-4.0642-1.43-5.5833-2.055a38.0817,38.0817,0,0,1-5.3592-2.7242,20.0865,20.0865,0,0,1-4.9576-3.8416,18.8035,18.8035,0,0,1-4.6-12.4153,18.0429,18.0429,0,0,1,6.2525-14.2476C111.3481,2.0607,116.7965.23,123.63.23A29.6555,29.6555,0,0,1,142.12,6.6615Z" style="fill: url(#f3e2ae78-191d-437b-a60a-0f58506c8fbb)"/>
        <path d="M169.4423,3.6689a8.1527,8.1527,0,0,1,2.3667,5.8952,8.1586,8.1586,0,0,1-8.2618,8.2169,7.7205,7.7205,0,0,1-5.7617-2.4117,8.0222,8.0222,0,0,1-2.3675-5.8052,8.1534,8.1534,0,0,1,2.3675-5.8952,7.7205,7.7205,0,0,1,5.7617-2.4117A8.0189,8.0189,0,0,1,169.4423,3.6689ZM167.209,24.3026a2.3477,2.3477,0,0,1,2.68,2.5458V67.669q0,2.5451-2.68,2.5458h-7.101a2.3483,2.3483,0,0,1-2.68-2.5458V26.8484a2.3477,2.3477,0,0,1,2.68-2.5458Z" style="fill: url(#a6c8faa6-22b2-4977-b0d8-cf62fa9809d8)"/>
        <path d="M222.2729,70.8841c4.9575,3.0824,7.4584,7.4592,7.4584,13.086a14.53,14.53,0,0,1-7.19,12.9533c-4.8234,3.0367-11.7017,4.5551-20.5893,4.5551-8.8434,0-15.6761-1.4741-20.5445-4.4224a14.0131,14.0131,0,0,1-7.28-12.6836c0-7.5476,4.8234-13.1744,13.3542-16.0785a6.5632,6.5632,0,0,1-2.0991-5.046c0-2.68,1.3842-4.7349,4.1084-6.1192-5.8509-3.3949-9.6018-9.0217-9.6018-15.6318,0-5.9393,1.965-10.54,5.85-13.8452,3.8859-3.2608,9.2009-4.9133,15.9444-4.9133H222.72c2.01,0,3.0368,1.0275,2.9925,3.0382l-.0892,4.2868a2.4068,2.4068,0,0,1-2.9925,2.6358l-6.6992-1.0717a12.926,12.926,0,0,1,8.2176,11.7,14.6352,14.6352,0,0,1-6.1634,12.4167c-4.1092,3.081-9.4684,4.5994-16.0335,4.5994-4.1534,0-6.1185.7149-6.1185,2.904,0,1.965,2.0542,2.9468,6.1185,2.9468C210.4819,66.1948,217.2711,67.7589,222.2729,70.8841ZM202.041,91.6076c4.6892,0,8.3517-.6693,11.0317-2.0092,2.635-1.34,3.975-3.3051,3.975-5.9408,0-5.2244-5.7616-7.86-15.0067-7.86a25.0442,25.0442,0,0,0-10.7635,2.0093c-2.8134,1.34-4.2426,3.305-4.2426,5.8509,0,2.6357,1.3393,4.6008,3.9743,5.9408S197.3517,91.6076,202.041,91.6076Zm0-58.3289a11.3042,11.3042,0,0,0-7.28,2.1448,7.3123,7.3123,0,0,0-2.6793,6.0735,7.55,7.55,0,0,0,2.6793,6.1634,12.9091,12.9091,0,0,0,14.5152,0,7.6507,7.6507,0,0,0,2.635-6.1634,7.4076,7.4076,0,0,0-2.635-6.0735A11.2533,11.2533,0,0,0,202.041,33.2787Z" style="fill: url(#bc26b845-19bf-4b1c-b8ce-eb5ed83fd65c)"/>
        <path d="M297.8755,27.5177c2.5458,3.0367,3.7959,7.101,3.7959,12.1484V67.8474a2.4611,2.4611,0,0,1-2.5458,2.6357h-7.5027c-1.6525,0-2.4567-.8491-2.4567-2.5458l-.0892-24.6979c0-5.985-2.2782-8.9775-6.8783-8.9775-5.1359,0-8.1285,4.645-8.1285,12.1927V67.7589a2.1588,2.1588,0,0,1-2.4559,2.4559h-7.5926A2.4528,2.4528,0,0,1,261.52,67.669V42.9711q0-8.9775-7.2351-8.9775c-4.8684,0-8.3068,4.0642-8.3068,10.8084V67.669c0,1.6967-.8933,2.5458-2.635,2.5458h-7.146c-1.7417,0-2.635-.8491-2.635-2.5458V26.9369a2.3409,2.3409,0,0,1,2.635-2.6343h7.146a2.3409,2.3409,0,0,1,2.635,2.6343v4.3325q4.4888-8.3739,13.5326-8.441c6.0293,0,10.2719,2.456,12.7286,7.325a16.1439,16.1439,0,0,1,13.89-7.1466C291.4438,23.0068,295.33,24.5252,297.8755,27.5177Z" style="fill: url(#bb0928ac-bdd4-4a75-99b9-aa555f454b33)"/>
        <path d="M346.452,27.4292c4.065,3.1709,6.0742,8.0385,6.0742,14.6044V67.7589c0,1.6525-.7592,2.4559-2.3225,2.4559h-7.86c-1.385,0-2.0992-.8034-2.0992-2.3674V64.1856c-3.1709,5.046-7.9051,7.5918-14.2469,7.5918-5.315,0-9.6475-1.2943-13.086-3.93a12.93,12.93,0,0,1-5.1366-10.8969q0-14.7378,21.9736-14.8284l10.4067-.0885v-.4467c0-5.2258-3.4392-8.3967-9.3343-8.3967-3.305,0-6.8783,1.4741-10.6743,4.3767a2.1681,2.1681,0,0,1-3.2158-.5365l-3.5726-4.3311c-.9833-1.2059-.9383-2.3232.0892-3.2608a22.153,22.153,0,0,1,7.3692-4.7792,26.463,26.463,0,0,1,10.3611-1.9208Q340.3564,22.7385,346.452,27.4292Zm-6.2968,22.9554H329.57c-6.2975,0-9.4235,1.9651-9.4235,5.8509-.0449,3.8858,2.9026,5.8509,8.7535,5.8509C335.51,62.0864,340.0211,57.9323,340.1552,50.3846Z" style="fill: url(#b2794c4b-e481-45dd-8124-bb57e06d62ea)"/>
        <polygon points="340.155 42.034 340.155 50.385 331.245 50.385 331.245 42.112 340.155 42.034" style="mix-blend-mode: multiply;fill: url(#f99c7b39-3840-4ff1-8ea5-2fb51d2c5d0c)"/>
        <g style="clip-path: url(#abc37532-99a0-4e98-b845-13163931eada)">
          <path d="M110.0142,3.6213s.46,19.4039,11.3162,23.466,6.02,16.3818,6.02,16.3818a61.3124,61.3124,0,0,0-7.1259-2.9325c-1.8079-.4056-14-5.43-17.1284-10.6707C100.0669,24.7912,96.2079,10.9371,110.0142,3.6213Z" style="fill: url(#ba9c293c-4fb3-40fb-b610-8ded40074145)"/>
        </g>
        <g style="clip-path: url(#a6cfd097-3840-47f8-a8f1-2cb4c865d331)">
          <path d="M245.9782,31.2694v12.547s.0575-7.917,6.3-9.5734l-.05-9.8711A15.4891,15.4891,0,0,0,245.9782,31.2694Z" style="mix-blend-mode: multiply;fill: url(#eec15726-23fc-4554-bbf6-92f096338f42)"/>
        </g>
        <g style="clip-path: url(#f0851a35-a537-40e7-b109-40392771d366)">
          <path d="M189.4908,57.1288s3.82,3.1251,13.782,3.1937S198.3,68.7074,198.3,68.7074s-14.896-.0771-14.9925-.27S182.15,61.8,182.8055,60.43s3.724-3.7047,3.724-3.7047Z" style="mix-blend-mode: multiply;fill: url(#a2e31f5c-c21a-4cb9-97f6-bc9a58b5f723)"/>
        </g>
        <g>
          <path d="M250.1438,76.4706a.5317.5317,0,0,1,.5446.7146l-2.757,11.6423a.856.856,0,0,1-.9362.7315h-2.4931a.8347.8347,0,0,1-.9109-.6808l-1.387-6.5358-1.0639,6.502q-.1149.714-.9954.7146h-2.3575a.8955.8955,0,0,1-.97-.6977l-3.2257-11.71c-.1018-.4512.06-.6808.4851-.6808h2.23a.6761.6761,0,0,1,.7658.5784l1.9917,9.3017,1.5485-9.2679a.7674.7674,0,0,1,.8344-.6122h1.43a.7361.7361,0,0,1,.8254.6122l1.9147,9.251,1.6508-9.2679a.69.69,0,0,1,.7747-.5953Z" style="fill: #522056"/>
          <path d="M257.84,81.3038a3.3839,3.3839,0,0,1,1.3109,2.9707v4.7488c0,.3568-.17.5357-.5024.5357h-1.8123q-.4852,0-.485-.5616v-.69a2.7292,2.7292,0,0,1-2.6383,1.5325,3.8263,3.8263,0,0,1-2.4086-.7235,2.3892,2.3892,0,0,1-.9532-2.0176,2.4662,2.4662,0,0,1,.9363-2,4.3309,4.3309,0,0,1,2.7744-.7831l2.272-.0418v-.1878c0-.817-.6043-1.2931-1.4978-1.2931a2.7717,2.7717,0,0,0-.8.1362,1.8774,1.8774,0,0,0-.3578.162c-.1446.0845-.2465.1441-.2892.17a3.1905,3.1905,0,0,0-.2892.1958,1.9216,1.9216,0,0,1-.2554.1789.4848.4848,0,0,1-.732-.1452l-.7489-.9193a.4928.4928,0,0,1,.0169-.7146,4.5733,4.5733,0,0,1,1.5152-.9531,5.4279,5.4279,0,0,1,2.1105-.3916A4.9528,4.9528,0,0,1,257.84,81.3038Zm-2.1274,6.0935a1.7934,1.7934,0,0,0,.6212-1.3278v-.1362h-1.83c-.8592,0-1.3616.4-1.3616.979-.0084.6132.4259.9193,1.2851.9193A2.0231,2.0231,0,0,0,255.713,87.3973Z" style="fill: #522056"/>
          <path d="M263.919,78.0022a.5162.5162,0,0,1,.5536.5446V80.794h1.4123a.507.507,0,0,1,.5277.5188v1.1747a.5026.5026,0,0,1-.5277.5188h-1.4123v2.8425c0,.9532.5272,1.2851,1.71,1.2851a.519.519,0,0,1,.5785.5953v1.4471a.4957.4957,0,0,1-.5785.5526,6.5154,6.5154,0,0,1-3.0467-.5874,2.6761,2.6761,0,0,1-1.5147-2.5274V83.0063h-1.1743a.5007.5007,0,0,1-.5193-.5188V81.3128a.5.5,0,0,1,.5193-.5188h1.1743V78.5468a.5029.5029,0,0,1,.5188-.5277Z" style="fill: #522056"/>
          <path d="M275.7322,81.8654a4.8591,4.8591,0,0,1,1.294,3.49.6147.6147,0,0,1-.6982.6977H270.26a1.4782,1.4782,0,0,0,.647,1.0813,2.3806,2.3806,0,0,0,1.5147.4592,3.4639,3.4639,0,0,0,2.1105-.7742.5485.5485,0,0,1,.7658.0934l.7658,1.1658a.5043.5043,0,0,1-.1188.7146A4.8688,4.8688,0,0,1,272.686,89.84a5.0831,5.0831,0,0,1-3.7022-1.3795,4.4615,4.4615,0,0,1-1.4213-3.31,4.8235,4.8235,0,0,1,8.17-3.2857Zm-3.4463.6559a2.0445,2.0445,0,0,0-1.3959.493,1.8989,1.8989,0,0,0-.6634,1.26h4.1271a2.0951,2.0951,0,0,0-.6893-1.2771A2.07,2.07,0,0,0,272.2859,82.5213Z" style="fill: #522056"/>
          <path d="M285.1472,81.108l-.6639,1.949a.3883.3883,0,0,1-.4169.2813h-.4512a2.5394,2.5394,0,0,0-1.387.4333,1.9337,1.9337,0,0,0-.8085,1.6767v3.5322c0,.3827-.2043.5785-.6127.5785h-1.6424c-.4085,0-.6128-.1958-.6043-.5785v-7.617a.5156.5156,0,0,1,.6043-.57h1.6424c.4084,0,.6127.1868.6127.57v1.2254a2.8088,2.8088,0,0,1,2.7148-2.0762,2.4073,2.4073,0,0,1,.7146.0855C285.13,80.6916,285.2237,80.8615,285.1472,81.108Z" style="fill: #522056"/>
          <path d="M298.6466,77.4148a.6528.6528,0,0,1,.085.9362l-.7827,1.0982a.64.64,0,0,1-.9189.1958c-.0343-.0258-.1873-.1113-.4512-.2723a4.107,4.107,0,0,0-.74-.3578,2.0876,2.0876,0,0,0-.6808-.1192,1.097,1.097,0,0,0-1.2,1.0634,1.3092,1.3092,0,0,0,.4258.8856,2.1813,2.1813,0,0,0,.5188.3409c.247.1272.4344.2206.57.28.1272.06.3658.162.6977.3061.3742.1451.6381.2475.8.3151.1531.0686.3995.1789.7489.3409a5.229,5.229,0,0,1,.7742.4333c.1705.1282.3832.3071.63.52a2.6791,2.6791,0,0,1,.8851,1.4213,3.2614,3.2614,0,0,1,.1362.978,3.78,3.78,0,0,1-1.2677,2.8931,5.07,5.07,0,0,1-3.54,1.1668,5.9985,5.9985,0,0,1-4.8422-1.941.5691.5691,0,0,1,.0338-.8677l1.0977-1.2165a.537.537,0,0,1,.8851.0338,2.9793,2.9793,0,0,0,2.3406,1.08c1.3188,0,1.9827-.4,1.9827-1.2086a.9182.9182,0,0,0-.5446-.8249c-.2042-.1193-.3747-.2127-.5193-.2813-.1446-.06-.3916-.161-.74-.2981-.3489-.1272-.6128-.23-.7743-.2972a9.36,9.36,0,0,1-1.26-.5874,7.0172,7.0172,0,0,1-1.0724-.7494,3.289,3.289,0,0,1-1.1569-2.6546,3.5341,3.5341,0,0,1,1.2-2.766,4.5675,4.5675,0,0,1,3.1745-1.0724A5.6559,5.6559,0,0,1,298.6466,77.4148Z" style="fill: #522056"/>
          <path d="M311.04,80.794c.4,0,.5785.2723.3827.646l-3.8463,7.9828-2.5955,5.4206c-.1789.4006-.3494.5029-.7151.5029H302.155c-.3742,0-.51-.2723-.332-.647l2.5955-5.0042-3.7613-8.22c-.1784-.4006-.0338-.6808.3662-.6808h2.1274a.744.744,0,0,1,.7658.485l2.0936,5.37,2.2467-5.353a.77.77,0,0,1,.7315-.5019Z" style="fill: #522056"/>
          <path d="M318.9311,81.4917a.5264.5264,0,0,1,.085.8338l-.5958.8508a.5486.5486,0,0,1-.817.1451,3.6475,3.6475,0,0,0-1.6767-.6132c-.4676,0-.6808.2465-.6808.5784,0,.2306.1536.4174.5959.6222a5.6078,5.6078,0,0,0,.5362.2375c.1277.0517.3573.1362.6808.2554a.9382.9382,0,0,0,.1958.0686,9.2764,9.2764,0,0,1,.9615.3737,6.4014,6.4014,0,0,1,.8.4771,2.05,2.05,0,0,1,.8339,1.778,2.5291,2.5291,0,0,1-.8508,1.949,3.8088,3.8088,0,0,1-2.6551.7921,4.97,4.97,0,0,1-4.0938-1.6259c-.2127-.2555-.1615-.5278.1451-.817l.817-.7653a.5638.5638,0,0,1,.8338.0507,2.6557,2.6557,0,0,0,2.0936.9611c.63,0,.9447-.1948.9358-.5954,0-.2037-.11-.3747-.4766-.5535-.1784-.0845-.3315-.1531-.4592-.2038s-.3493-.1272-.647-.2385c-.2976-.1024-.5193-.1789-.6465-.2207a4.5176,4.5176,0,0,1-1.702-.9879,2.2621,2.2621,0,0,1-.647-1.7184,2.3094,2.3094,0,0,1,.9531-1.8387,3.6389,3.6389,0,0,1,2.3913-.7742A5.7924,5.7924,0,0,1,318.9311,81.4917Z" style="fill: #522056"/>
          <path d="M324.2772,78.0022a.516.516,0,0,1,.5531.5446V80.794h1.4123a.5071.5071,0,0,1,.5278.5188v1.1747a.5027.5027,0,0,1-.5278.5188H324.83v2.8425c0,.9532.5273,1.2851,1.71,1.2851a.519.519,0,0,1,.5784.5953v1.4471a.4957.4957,0,0,1-.5784.5526,6.5156,6.5156,0,0,1-3.0468-.5874,2.6762,2.6762,0,0,1-1.5146-2.5274V83.0063h-1.1748a.5006.5006,0,0,1-.5188-.5188V81.3128a.5.5,0,0,1,.5188-.5188h1.1748V78.5468a.5029.5029,0,0,1,.5188-.5277Z" style="fill: #522056"/>
          <path d="M336.0905,81.8654a4.8591,4.8591,0,0,1,1.294,3.49.6147.6147,0,0,1-.6982.6977h-6.0676a1.4779,1.4779,0,0,0,.647,1.0813,2.38,2.38,0,0,0,1.5146.4592,3.4634,3.4634,0,0,0,2.1105-.7742.5485.5485,0,0,1,.7658.0934l.7658,1.1658a.5043.5043,0,0,1-.1188.7146,4.8686,4.8686,0,0,1-3.2594,1.0475,5.0831,5.0831,0,0,1-3.7022-1.3795,4.4614,4.4614,0,0,1-1.4212-3.31,4.8235,4.8235,0,0,1,8.17-3.2857Zm-3.4463.6559a2.0443,2.0443,0,0,0-1.3959.493,1.8981,1.8981,0,0,0-.6634,1.26h4.1271a2.0961,2.0961,0,0,0-.6893-1.2771A2.07,2.07,0,0,0,332.6442,82.5213Z" style="fill: #522056"/>
          <path d="M349.4114,80.5982a2.9841,2.9841,0,0,1,2.3659.8507,3.39,3.39,0,0,1,.7489,2.3227V89.074a.5362.5362,0,0,1-.57.57h-1.7447a.4993.4993,0,0,1-.5616-.57l-.0342-4.5023c0-.9531-.3573-1.4292-1.0809-1.4292-.817,0-1.3442.7663-1.4123,2.0931l.0169,3.7449c0,.3827-.1873.5785-.5531.5785h-1.7616a.5051.5051,0,0,1-.5616-.5785l-.0174-4.4933c0-.9531-.3573-1.43-1.0808-1.43-.7742,0-1.387.5795-1.48,1.6091v4.3144a.5253.5253,0,0,1-.6043.5785h-1.6424c-.4084,0-.6127-.1958-.6127-.5785v-7.617c0-.3827.2043-.5785.6127-.57H341.08c.4085,0,.6128.1868.6043.57v.86a2.7609,2.7609,0,0,1,2.6889-1.7105,2.44,2.44,0,0,1,2.3829,1.3447A3.2716,3.2716,0,0,1,349.4114,80.5982Z" style="fill: #522056"/>
        </g>
      </g>
    </g>
  </g>
</svg>
